<?xml version="1.0" encoding="UTF-8"?>
<svg width="1980px" height="372px" viewBox="0 0 1980 372" version="1.1" xmlns="http://www.w3.org/2000/svg" xmlns:xlink="http://www.w3.org/1999/xlink">
    <!-- Generator: sketchtool 53.2 (72643) - https://sketchapp.com -->
    <title>010EA488-A298-415A-8415-C0406897FC8E@3x</title>
    <desc>Created with sketchtool.</desc>
    <g id="Page-1" stroke="none" stroke-width="1" fill="none" fill-rule="evenodd" opacity="0.157040551">
        <g id="version_2_A" transform="translate(0.000000, -4823.000000)">
            <g id="footer" transform="translate(-277.000000, 3674.000000)">
                <g id="Group-8" transform="translate(-28.000000, 706.000000)">
                    <g id="dots" transform="translate(0.000000, 442.000000)">
                        <g id="Group-356" transform="translate(1965.696051, 0.000000)">
                            <path d="M379.194098,345.477326 L209.914421,288.681764" id="Stroke-266" stroke="#FFFFFF" stroke-width="0.744"></path>
                            <polyline id="Stroke-282" stroke="#FFFFFF" stroke-width="0.744" points="6.48224262 233.292123 174.538548 88.716473 449.939661 8.50321752"></polyline>
                            <path d="M12.7050366,232.903977 C12.7050366,236.336853 9.91951352,239.119685 6.48331811,239.119685 C3.04174525,239.119685 0.256222206,236.336853 0.256222206,232.903977 C0.256222206,229.468415 3.04174525,226.685582 6.48331811,226.685582 C9.91951352,226.685582 12.7050366,229.468415 12.7050366,232.903977" id="Fill-284" fill="#FFFFFF"></path>
                            <path d="M216.163565,288.478423 C216.163565,291.913985 213.378042,294.696818 209.941846,294.696818 C206.500274,294.696818 203.714751,291.913985 203.714751,288.478423 C203.714751,285.045547 206.500274,282.262715 209.941846,282.262715 C213.378042,282.262715 216.163565,285.045547 216.163565,288.478423" id="Fill-286" fill="#FFFFFF"></path>
                            <path d="M181.541073,87.9393752 C181.541073,91.3722511 178.75555,94.1550832 175.319355,94.1550832 C171.877782,94.1550832 169.092259,91.3722511 169.092259,87.9393752 C169.092259,84.5038131 171.877782,81.720981 175.319355,81.720981 C178.75555,81.720981 181.541073,84.5038131 181.541073,87.9393752" id="Fill-350" fill="#FFFFFF"></path>
                        </g>
                        <g id="Group-458">
                            <polyline id="Stroke-357" stroke="#FFFFFF" stroke-width="0.744" points="832.978593 332.854657 1174.3929 218.006423 802.687486 206.64946 1059.53598 38.1645547 779.33518 19.2327007"></polyline>
                            <polyline id="Stroke-359" stroke="#FFFFFF" stroke-width="0.744" points="575.497195 270.383836 449.282456 8.5048292 779.336255 19.233238 575.497195 270.383836 832.979668 332.855194 504.817049 407.317442 755.986635 507.021267 629.771897 702.641472 946.574007 565.076625 783.752589 426.24661 1159.87702 317.710785 832.979668 332.855194 783.752589 426.24661"></polyline>
                            <path d="M378.60231,345.477326 L209.470691,288.681764" id="Stroke-367" stroke="#FFFFFF" stroke-width="0.744"></path>
                            <path d="M504.818123,407.316099 L575.498269,270.382493" id="Stroke-369" stroke="#FFFFFF" stroke-width="0.744"></path>
                            <polyline id="Stroke-371" stroke="#FFFFFF" stroke-width="0.744" points="779.335717 19.233238 802.685337 206.647311 575.496658 270.383836 378.601773 345.477326 504.819198 407.317442 783.754738 426.24661 755.988785 507.021267 946.57347 565.076625 1228.03416 406.054961 783.754738 426.24661"></polyline>
                            <path d="M1059.53572,38.1645547 L1174.39263,218.006423" id="Stroke-373" stroke="#FFFFFF" stroke-width="0.744"></path>
                            <polyline id="Stroke-383" stroke="#FFFFFF" stroke-width="0.744" points="6.2196702 233.292123 174.12632 88.716473 449.282187 8.50321752"></polyline>
                            <path d="M1169.72002,316.850686 C1169.72002,320.283562 1166.93698,323.066394 1163.50384,323.066394 C1160.06534,323.066394 1157.28229,320.283562 1157.28229,316.850686 C1157.28229,313.41781 1160.06534,310.632292 1163.50384,310.632292 C1166.93698,310.632292 1169.72002,313.41781 1169.72002,316.850686" id="Fill-404" fill="#FFFFFF"></path>
                            <path d="M582.430624,269.825121 C582.430624,273.257997 579.647582,276.040829 576.214446,276.040829 C572.775938,276.040829 569.992896,273.257997 569.992896,269.825121 C569.992896,266.392245 572.775938,263.606727 576.214446,263.606727 C579.647582,263.606727 582.430624,266.392245 582.430624,269.825121" id="Fill-430" fill="#FFFFFF"></path>
                            <path d="M386.53801,345.999509 C386.53801,349.432385 383.754968,352.215218 380.321832,352.215218 C376.883324,352.215218 374.100282,349.432385 374.100282,345.999509 C374.100282,342.566634 376.883324,339.781115 380.321832,339.781115 C383.754968,339.781115 386.53801,342.566634 386.53801,345.999509" id="Fill-432" fill="#FFFFFF"></path>
                            <path d="M1182.93383,219.300064 C1182.93383,222.73294 1180.15079,225.518458 1176.71765,225.518458 C1173.28183,225.518458 1170.4961,222.73294 1170.4961,219.300064 C1170.4961,215.867188 1173.28183,213.084356 1176.71765,213.084356 C1180.15079,213.084356 1182.93383,215.867188 1182.93383,219.300064" id="Fill-438" fill="#FFFFFF"></path>
                            <path d="M1065.55364,40.5227095 C1065.55364,43.9555854 1062.7706,46.7411036 1059.33746,46.7411036 C1055.90164,46.7411036 1053.11591,43.9555854 1053.11591,40.5227095 C1053.11591,37.0898336 1055.90164,34.3070015 1059.33746,34.3070015 C1062.7706,34.3070015 1065.55364,37.0898336 1065.55364,40.5227095" id="Fill-440" fill="#FFFFFF"></path>
                            <path d="M837.207421,333.56299 C837.207421,336.995866 834.424378,339.778698 830.991243,339.778698 C827.552735,339.778698 824.769692,336.995866 824.769692,333.56299 C824.769692,330.130114 827.552735,327.344596 830.991243,327.344596 C834.424378,327.344596 837.207421,330.130114 837.207421,333.56299" id="Fill-442" fill="#FFFFFF"></path>
                            <path d="M810.776845,206.087253 C810.776845,209.520128 807.993802,212.302961 804.560667,212.302961 C801.124845,212.302961 798.339116,209.520128 798.339116,206.087253 C798.339116,202.654377 801.124845,199.868858 804.560667,199.868858 C807.993802,199.868858 810.776845,202.654377 810.776845,206.087253" id="Fill-446" fill="#FFFFFF"></path>
                            <path d="M788.137224,18.272946 C788.137224,21.7058219 785.354181,24.4913401 781.921046,24.4913401 C778.482538,24.4913401 775.699495,21.7058219 775.699495,18.272946 C775.699495,14.8400701 778.482538,12.057238 781.921046,12.057238 C785.354181,12.057238 788.137224,14.8400701 788.137224,18.272946" id="Fill-448" fill="#FFFFFF"></path>
                            <path d="M455.236448,7.19534015 C455.236448,10.6309022 452.453405,13.4137343 449.02027,13.4137343 C445.581762,13.4137343 442.798719,10.6309022 442.798719,7.19534015 C442.798719,3.76246423 445.581762,0.979632117 449.02027,0.979632117 C452.453405,0.979632117 455.236448,3.76246423 455.236448,7.19534015" id="Fill-450" fill="#FFFFFF"></path>
                            <path d="M802.686411,206.648385 L830.989631,333.562721" id="Stroke-456" stroke="#FFFFFF" stroke-width="0.744"></path>
                        </g>
                    </g>
                </g>
            </g>
        </g>
    </g>
</svg>