<svg width="373" height="193" viewBox="0 0 373 193" fill="none" xmlns="http://www.w3.org/2000/svg">
<rect width="372.888" height="193" fill="#00477B"/>
<path d="M39.55 83.76L45.85 83.625C46.09 83.625 46.21 83.88 46.21 84.39C46.21 84.9 46.09 85.155 45.85 85.155H43.915C43.165 85.155 42.67 85.305 42.43 85.605C42.19 85.875 42.07 86.415 42.07 87.225V112.2H44.68C49.45 112.2 52.75 111.57 54.58 110.31L54.895 107.835C54.955 107.595 55.21 107.475 55.66 107.475C56.14 107.475 56.38 107.565 56.38 107.745L55.975 114.99C55.975 115.2 55.735 115.305 55.255 115.305C54.805 115.305 54.58 115.2 54.58 114.99V114H39.955L33.655 114.09C33.415 114.09 33.295 113.835 33.295 113.325C33.295 112.815 33.415 112.56 33.655 112.56H35.59C36.34 112.56 36.835 112.425 37.075 112.155C37.315 111.855 37.435 111.3 37.435 110.49V89.16C37.435 86.52 37.12 85.2 36.49 85.2H33.88C33.64 85.2 33.52 84.96 33.52 84.48C33.52 83.97 33.64 83.715 33.88 83.715C33.88 83.715 35.77 83.73 39.55 83.76ZM77.6017 92.355L81.2917 92.265C81.5017 92.265 81.6067 92.49 81.6067 92.94C81.6067 93.36 81.5017 93.57 81.2917 93.57H80.3467C79.8067 93.57 79.4617 93.675 79.3117 93.885C79.1617 94.065 79.0567 94.455 78.9967 95.055C78.7567 100.335 78.6367 103.95 78.6367 105.9C78.6367 108.6 77.7667 110.73 76.0267 112.29C74.3167 113.82 72.2917 114.585 69.9517 114.585C67.6117 114.585 65.5567 113.865 63.7867 112.425C62.0467 110.985 61.1767 108.96 61.1767 106.35V96.99C61.1767 94.77 60.8467 93.66 60.1867 93.66H58.6117C58.3717 93.66 58.2517 93.435 58.2517 92.985C58.2517 92.505 58.3717 92.265 58.6117 92.265L62.9767 92.355L67.7017 92.265C67.9417 92.265 68.0617 92.505 68.0617 92.985C68.0617 93.435 67.9417 93.66 67.7017 93.66H66.3067C65.7667 93.66 65.4067 93.765 65.2267 93.975C65.0767 94.185 65.0017 94.575 65.0017 95.145V105.45C65.0017 107.73 65.5267 109.41 66.5767 110.49C67.6567 111.57 69.0817 112.11 70.8517 112.11C72.6217 112.11 73.9867 111.51 74.9467 110.31C75.9367 109.08 76.4317 107.235 76.4317 104.775C76.4317 101.295 76.3867 98.58 76.2967 96.63C76.2367 94.65 75.9967 93.66 75.5767 93.66H73.7767C73.5967 93.66 73.5067 93.435 73.5067 92.985C73.5067 92.535 73.5967 92.31 73.7767 92.31L77.6017 92.355ZM96.4795 114.585C92.8195 114.585 89.7895 113.61 87.3895 111.66C84.9895 109.71 83.7895 107.04 83.7895 103.65C83.7895 100.23 85.0795 97.395 87.6595 95.145C90.2395 92.895 93.3145 91.77 96.8845 91.77C98.6245 91.77 100.334 92.205 102.014 93.075V92.31C102.014 92.1 102.194 91.995 102.554 91.995C102.944 91.995 103.139 92.1 103.139 92.31C103.139 94.2 103.289 96.165 103.589 98.205C103.619 98.295 103.559 98.385 103.409 98.475C103.289 98.535 103.094 98.565 102.824 98.565C102.554 98.565 102.389 98.445 102.329 98.205L101.969 95.82C100.289 94.23 98.3545 93.435 96.1645 93.435C94.0045 93.435 92.1445 94.365 90.5845 96.225C89.0545 98.085 88.2895 100.41 88.2895 103.2C88.2895 105.99 89.0995 108.315 90.7195 110.175C92.3395 112.005 94.2445 112.92 96.4345 112.92C98.6245 112.92 100.694 112.275 102.644 110.985L102.869 108.42C102.869 108.18 103.079 108.06 103.499 108.06C103.919 108.06 104.129 108.165 104.129 108.375L103.859 114.09C103.859 114.27 103.649 114.36 103.229 114.36C102.839 114.36 102.644 114.27 102.644 114.09V113.325C100.574 114.165 98.5195 114.585 96.4795 114.585ZM108.217 92.265L111.772 92.355C112.102 92.355 112.387 92.355 112.627 92.355L117.307 92.265C117.517 92.265 117.622 92.49 117.622 92.94C117.622 93.36 117.502 93.57 117.262 93.57H115.192C114.802 93.57 114.607 93.81 114.607 94.29V109.185C114.607 111.465 114.907 112.605 115.507 112.605H117.757C117.997 112.605 118.117 112.845 118.117 113.325C118.117 113.775 118.027 114 117.847 114L112.627 113.955L108.127 114.09C107.917 114.09 107.812 113.865 107.812 113.415C107.812 112.965 107.902 112.74 108.082 112.74H110.107C110.437 112.74 110.632 112.68 110.692 112.56C110.752 112.41 110.782 112.035 110.782 111.435V97.26C110.782 94.86 110.482 93.66 109.882 93.66H108.262C107.902 93.66 107.722 93.435 107.722 92.985C107.722 92.505 107.887 92.265 108.217 92.265ZM142.646 92.355L146.786 92.265C146.966 92.265 147.056 92.49 147.056 92.94C147.056 93.36 146.966 93.57 146.786 93.57H145.211C144.791 93.57 144.521 93.675 144.401 93.885C143.861 94.815 143.591 101.565 143.591 114.135C143.591 114.435 143.336 114.585 142.826 114.585C142.346 114.585 142.001 114.48 141.791 114.27C135.791 107.13 130.961 101.34 127.301 96.9H127.166C127.256 102.21 127.346 106.65 127.436 110.22C127.436 111.78 127.661 112.56 128.111 112.56H129.911C130.091 112.56 130.181 112.8 130.181 113.28C130.181 113.73 130.091 113.955 129.911 113.955H126.176L122.081 114.045C121.931 114.045 121.856 113.835 121.856 113.415C121.856 112.965 121.931 112.74 122.081 112.74H123.161C124.091 112.74 124.571 112.44 124.601 111.84C125.051 106.98 125.276 101.295 125.276 94.785C124.796 94.215 124.391 93.885 124.061 93.795C123.731 93.705 123.116 93.66 122.216 93.66C122.036 93.66 121.946 93.435 121.946 92.985C121.946 92.505 122.036 92.265 122.216 92.265L128.561 92.355C135.851 101.595 140.141 107.07 141.431 108.78H141.521C141.401 100.92 141.296 96.435 141.206 95.325C141.116 94.215 140.876 93.66 140.486 93.66H138.911C138.701 93.66 138.596 93.435 138.596 92.985C138.596 92.505 138.701 92.265 138.911 92.265L142.646 92.355ZM151.078 114L147.523 114.09C147.313 114.09 147.208 113.895 147.208 113.505C147.208 113.115 147.313 112.92 147.523 112.92H148.963C149.293 112.92 149.533 112.785 149.683 112.515C150.373 111.375 151.753 108.345 153.823 103.425C155.893 98.475 157.378 94.725 158.278 92.175C158.398 91.905 158.683 91.77 159.133 91.77C159.613 91.77 159.913 91.92 160.033 92.22C160.393 93.72 161.443 96.555 163.183 100.725C164.953 104.895 166.498 108.375 167.818 111.165C168.178 111.885 168.508 112.35 168.808 112.56C169.108 112.77 169.573 112.875 170.203 112.875C170.383 112.875 170.473 113.085 170.473 113.505C170.473 113.895 170.398 114.09 170.248 114.09L165.928 114L161.068 114.09C160.888 114.09 160.798 113.895 160.798 113.505C160.798 113.115 160.888 112.92 161.068 112.92H163.228C163.558 112.92 163.723 112.785 163.723 112.515C163.723 112.485 162.883 110.175 161.203 105.585H154.948C153.478 109.215 152.743 111.345 152.743 111.975C152.743 112.575 152.923 112.875 153.283 112.875H155.128C155.368 112.875 155.488 113.085 155.488 113.505C155.488 113.895 155.398 114.09 155.218 114.09L151.078 114ZM160.618 104.055C160.528 103.785 159.748 101.505 158.278 97.215H158.143C157.423 99.285 156.568 101.565 155.578 104.055H160.618ZM211.922 107.745C211.982 107.415 212.237 107.25 212.687 107.25C213.167 107.25 213.407 107.385 213.407 107.655L213.047 113.91C213.047 114.15 212.807 114.27 212.327 114.27C211.877 114.27 211.652 114.15 211.652 113.91V112.83C208.712 114 205.832 114.585 203.012 114.585C197.852 114.585 193.562 113.295 190.142 110.715C186.722 108.105 185.012 104.505 185.012 99.915C185.012 96.465 185.912 93.45 187.712 90.87C189.512 88.26 191.792 86.34 194.552 85.11C197.312 83.85 200.132 83.22 203.012 83.22C205.922 83.22 208.517 83.805 210.797 84.975V83.94C210.797 83.67 211.007 83.535 211.427 83.535C211.877 83.535 212.102 83.67 212.102 83.94C212.102 86.37 212.252 88.59 212.552 90.6C212.612 90.9 212.387 91.05 211.877 91.05C211.367 91.05 211.097 90.9 211.067 90.6L210.707 88.485C208.367 86.325 205.562 85.245 202.292 85.245C199.052 85.245 196.292 86.445 194.012 88.845C191.732 91.215 190.592 94.59 190.592 98.97C190.592 103.32 191.792 106.68 194.192 109.05C196.622 111.39 199.652 112.56 203.282 112.56C206.222 112.56 209.012 111.66 211.652 109.86L211.922 107.745ZM218.268 114L214.713 114.09C214.503 114.09 214.398 113.895 214.398 113.505C214.398 113.115 214.503 112.92 214.713 112.92H216.153C216.483 112.92 216.723 112.785 216.873 112.515C217.563 111.375 218.943 108.345 221.013 103.425C223.083 98.475 224.568 94.725 225.468 92.175C225.588 91.905 225.873 91.77 226.323 91.77C226.803 91.77 227.103 91.92 227.223 92.22C227.583 93.72 228.633 96.555 230.373 100.725C232.143 104.895 233.688 108.375 235.008 111.165C235.368 111.885 235.698 112.35 235.998 112.56C236.298 112.77 236.763 112.875 237.393 112.875C237.573 112.875 237.663 113.085 237.663 113.505C237.663 113.895 237.588 114.09 237.438 114.09L233.118 114L228.258 114.09C228.078 114.09 227.988 113.895 227.988 113.505C227.988 113.115 228.078 112.92 228.258 112.92H230.418C230.748 112.92 230.913 112.785 230.913 112.515C230.913 112.485 230.073 110.175 228.393 105.585H222.138C220.668 109.215 219.933 111.345 219.933 111.975C219.933 112.575 220.113 112.875 220.473 112.875H222.318C222.558 112.875 222.678 113.085 222.678 113.505C222.678 113.895 222.588 114.09 222.408 114.09L218.268 114ZM227.808 104.055C227.718 103.785 226.938 101.505 225.468 97.215H225.333C224.613 99.285 223.758 101.565 222.768 104.055H227.808ZM244.993 114L240.178 114.09C239.968 114.09 239.863 113.865 239.863 113.415C239.863 112.965 239.938 112.74 240.088 112.74H242.293C242.653 112.74 242.833 112.485 242.833 111.975V97.215C242.833 94.845 242.503 93.66 241.843 93.66H240.268C239.938 93.66 239.773 93.435 239.773 92.985C239.773 92.505 239.908 92.265 240.178 92.265C242.848 92.325 245.578 92.355 248.368 92.355C251.158 92.355 253.318 92.925 254.848 94.065C256.378 95.205 257.143 96.675 257.143 98.475C257.143 99.855 256.513 101.175 255.253 102.435C253.993 103.665 252.328 104.28 250.258 104.28C248.908 104.28 247.708 104.1 246.658 103.74V109.635C246.658 111.615 246.958 112.605 247.558 112.605H249.808C250.048 112.605 250.168 112.845 250.168 113.325C250.168 113.775 250.093 114 249.943 114H244.993ZM247.558 93.705C246.958 93.705 246.658 94.2 246.658 95.19V102.21C246.988 102.27 247.483 102.3 248.143 102.3C249.583 102.3 250.723 101.91 251.563 101.13C252.433 100.32 252.868 99.345 252.868 98.205C252.868 97.065 252.433 96.03 251.563 95.1C250.693 94.17 249.358 93.705 247.558 93.705ZM260.467 92.265L264.022 92.355C264.352 92.355 264.637 92.355 264.877 92.355L269.557 92.265C269.767 92.265 269.872 92.49 269.872 92.94C269.872 93.36 269.752 93.57 269.512 93.57H267.442C267.052 93.57 266.857 93.81 266.857 94.29V109.185C266.857 111.465 267.157 112.605 267.757 112.605H270.007C270.247 112.605 270.367 112.845 270.367 113.325C270.367 113.775 270.277 114 270.097 114L264.877 113.955L260.377 114.09C260.167 114.09 260.062 113.865 260.062 113.415C260.062 112.965 260.152 112.74 260.332 112.74H262.357C262.687 112.74 262.882 112.68 262.942 112.56C263.002 112.41 263.032 112.035 263.032 111.435V97.26C263.032 94.86 262.732 93.66 262.132 93.66H260.512C260.152 93.66 259.972 93.435 259.972 92.985C259.972 92.505 260.137 92.265 260.467 92.265ZM294.806 97.08C294.806 97.26 294.596 97.35 294.176 97.35C293.786 97.35 293.591 97.245 293.591 97.035C293.291 95.565 292.841 94.755 292.241 94.605C291.161 94.365 289.526 94.215 287.336 94.155H286.481C286.181 94.185 286.031 94.425 286.031 94.875V109.185C286.031 111.465 286.331 112.605 286.931 112.605H289.181C289.421 112.605 289.541 112.845 289.541 113.325C289.541 113.775 289.451 114 289.271 114L284.051 113.955L279.551 114.09C279.341 114.09 279.236 113.865 279.236 113.415C279.236 112.965 279.326 112.74 279.506 112.74H281.531C281.861 112.74 282.056 112.68 282.116 112.56C282.176 112.41 282.206 112.035 282.206 111.435V97.755C282.206 95.505 281.936 94.305 281.396 94.155C278.966 94.155 277.151 94.305 275.951 94.605C275.351 94.755 274.901 95.565 274.601 97.035C274.601 97.245 274.391 97.35 273.971 97.35C273.581 97.35 273.386 97.26 273.386 97.08L273.611 91.68C273.611 91.5 273.806 91.41 274.196 91.41C274.616 91.41 274.826 91.5 274.826 91.68V92.265C274.826 92.265 276.791 92.295 280.721 92.355H284.051C288.611 92.355 291.671 92.325 293.231 92.265H293.366V91.68C293.366 91.5 293.561 91.41 293.951 91.41C294.371 91.41 294.581 91.5 294.581 91.68L294.806 97.08ZM298.362 114L294.807 114.09C294.597 114.09 294.492 113.895 294.492 113.505C294.492 113.115 294.597 112.92 294.807 112.92H296.247C296.577 112.92 296.817 112.785 296.967 112.515C297.657 111.375 299.037 108.345 301.107 103.425C303.177 98.475 304.662 94.725 305.562 92.175C305.682 91.905 305.967 91.77 306.417 91.77C306.897 91.77 307.197 91.92 307.317 92.22C307.677 93.72 308.727 96.555 310.467 100.725C312.237 104.895 313.782 108.375 315.102 111.165C315.462 111.885 315.792 112.35 316.092 112.56C316.392 112.77 316.857 112.875 317.487 112.875C317.667 112.875 317.757 113.085 317.757 113.505C317.757 113.895 317.682 114.09 317.532 114.09L313.212 114L308.352 114.09C308.172 114.09 308.082 113.895 308.082 113.505C308.082 113.115 308.172 112.92 308.352 112.92H310.512C310.842 112.92 311.007 112.785 311.007 112.515C311.007 112.485 310.167 110.175 308.487 105.585H302.232C300.762 109.215 300.027 111.345 300.027 111.975C300.027 112.575 300.207 112.875 300.567 112.875H302.412C302.652 112.875 302.772 113.085 302.772 113.505C302.772 113.895 302.682 114.09 302.502 114.09L298.362 114ZM307.902 104.055C307.812 103.785 307.032 101.505 305.562 97.215H305.427C304.707 99.285 303.852 101.565 302.862 104.055H307.902ZM320.362 92.265L323.917 92.355C324.247 92.355 324.532 92.355 324.772 92.355L329.452 92.265C329.662 92.265 329.767 92.49 329.767 92.94C329.767 93.36 329.647 93.57 329.407 93.57H327.337C326.947 93.57 326.752 93.81 326.752 94.29V109.185C326.752 111.435 327.052 112.56 327.652 112.56H328.822C332.122 112.5 334.402 112.035 335.662 111.165L335.887 109.41C335.947 109.23 336.097 109.14 336.337 109.14C336.607 109.14 336.787 109.14 336.877 109.14C337.057 109.2 337.147 109.29 337.147 109.41C336.967 110.67 336.877 112.44 336.877 114.72C336.877 114.87 336.667 114.945 336.247 114.945C335.857 114.945 335.662 114.87 335.662 114.72V114H327.922L320.272 114.09C320.062 114.09 319.957 113.865 319.957 113.415C319.957 112.965 320.047 112.74 320.227 112.74H322.252C322.582 112.74 322.777 112.68 322.837 112.56C322.897 112.41 322.927 112.035 322.927 111.435V97.26C322.927 94.86 322.627 93.66 322.027 93.66H320.407C320.047 93.66 319.867 93.435 319.867 92.985C319.867 92.505 320.032 92.265 320.362 92.265Z" fill="white"/>
</svg>
