<?xml version="1.0" encoding="UTF-8"?> <!-- Generator: Adobe Illustrator 23.0.2, SVG Export Plug-In . SVG Version: 6.00 Build 0) --> <svg xmlns="http://www.w3.org/2000/svg" xmlns:xlink="http://www.w3.org/1999/xlink" id="Layer_1" x="0px" y="0px" viewBox="0 0 484 192" xml:space="preserve"> <path fill="#004777" d="M465.68,28.29h-8.42l4.13-13.32L465.68,28.29z M480.71,41.57L466.04,3.35h-8.42l-15.13,38.22h10.59 l1.76-5.53h13.38l1.81,5.53H480.71z"></path> <g> <defs> <rect id="SVGID_1_" width="484" height="192"></rect> </defs> <clipPath id="SVGID_2_"> <use xlink:href="#SVGID_1_" overflow="visible"></use> </clipPath> <path clip-path="url(#SVGID_2_)" fill="#004777" d="M3.55,29.23c-0.26,7.47,3.77,13.35,13.77,13.35c10.11,0,13.31-6.13,13.31-12.22 c0-4.43-1.81-7.73-8.92-10.93c-6.86-3.09-7.89-3.56-7.89-5.31c0-1.8,1.65-2.99,3.35-2.99c2.99,0,3.3,2.42,3.51,3.71h9.65 C30.17,5.68,22.74,3,17.48,3C11.08,3,4.12,7.07,4.12,14.75c0,7.16,6.66,9.84,9.34,10.93c5.88,2.47,7.48,3.09,7.48,5.1 c0,1.75-1.39,3.66-3.71,3.66c-1.24,0-3.97-0.77-3.97-5.21H3.55z"></path> <path clip-path="url(#SVGID_2_)" fill="#004777" d="M110.97,16.76c0,2.27-1.03,3.45-2.32,4.02c-1.29,0.57-2.84,0.57-3.77,0.57 h-3.56v-9.07h3.2c1.08,0,2.68,0,4.02,0.57C109.89,13.41,110.97,14.49,110.97,16.76 M120.31,16.61c0-3.86-1.5-7.63-4.49-10.1 c-2.06-1.7-4.69-2.78-11.76-2.78H91.58v38.14h9.75V29.9h3.82c5.93,0,8.51-1.08,11.14-3.3C118.71,24.54,120.31,20.47,120.31,16.61"></path> </g> <polygon fill="#004777" points="188.56,41.86 188.56,26.6 201.04,26.6 201.04,41.86 210.79,41.86 210.79,3.72 201.04,3.72 201.04,18.05 188.56,18.05 188.56,3.72 178.81,3.72 178.81,41.86 "></polygon> <polygon fill="#004777" points="272.85,41.86 294.47,41.86 294.47,33.31 282.6,33.31 282.6,26.76 294.11,26.76 294.11,18.2 282.6,18.2 282.6,12.28 294.47,12.28 294.47,3.72 272.85,3.72 "></polygon> <g> <defs> <rect id="SVGID_3_" width="484" height="192"></rect> </defs> <clipPath id="SVGID_4_"> <use xlink:href="#SVGID_3_" overflow="visible"></use> </clipPath> <path clip-path="url(#SVGID_4_)" fill="#004777" d="M376.99,16.76c0,2.27-1.05,3.45-2.36,4.02c-1.31,0.57-2.88,0.57-3.83,0.57 h-3.62v-9.07h3.25c1.1,0,2.73,0,4.09,0.57C375.89,13.41,376.99,14.49,376.99,16.76 M386.48,16.61c0-3.86-1.52-7.63-4.56-10.1 c-2.1-1.7-4.77-2.78-11.96-2.78h-12.69v38.14h9.91V29.9h3.78l6.58,11.96h10.23l-7.79-13.61c0.86-0.45,1.63-1,2.41-1.65 C384.86,24.54,386.48,20.47,386.48,16.61"></path> <path clip-path="url(#SVGID_4_)" fill="#004777" d="M3.54,118.54h476.92v-3.45C402.69,98.64,323.08,89.96,242,89.96 c-81.08,0-160.69,8.69-238.46,25.14V118.54z"></path> <path clip-path="url(#SVGID_4_)" fill="#4A4A4A" d="M478.9,188.63h2.07l-5.65-9.23c1.22-0.23,2.27-0.76,3.15-1.6 c1.19-1.15,1.79-2.56,1.79-4.24c0-1.67-0.6-3.08-1.8-4.22c-1.19-1.14-2.7-1.72-4.53-1.72h-6.91v21.01h1.65v-9.11h4.76L478.9,188.63 z M473.63,169.13c1.43,0,2.59,0.43,3.49,1.29c0.9,0.86,1.36,1.91,1.36,3.15c0,1.24-0.45,2.29-1.36,3.15 c-0.9,0.86-2.07,1.29-3.49,1.29h-4.97v-8.87H473.63z M439.85,167.62v1.51h-11.16V177h10.22v1.51h-10.22v8.62h11.16v1.5h-12.82 v-21.01H439.85z M385.34,167.62V177h12.3v-9.38h1.64v21.01h-1.64v-10.12h-12.3v10.12h-1.66v-21.01H385.34z M351.72,168.56 c1.42,0.86,2.56,2.05,3.42,3.59l-1.52,0.74c-0.68-1.26-1.6-2.25-2.75-2.96c-1.15-0.71-2.46-1.06-3.93-1.06 c-2.34,0-4.25,0.86-5.73,2.58c-1.47,1.72-2.21,3.95-2.21,6.7c0,2.75,0.72,4.98,2.16,6.7c1.44,1.72,3.37,2.58,5.78,2.58 c2.37,0,4.26-0.81,5.65-2.42c1.4-1.61,2.15-3.74,2.26-6.4h-8.17v-1.5h9.83c0.02,0.22,0.03,0.55,0.03,1.01 c0,3.2-0.86,5.81-2.58,7.84c-1.72,2.02-4.06,3.04-7.01,3.04c-2.97,0-5.33-1.01-7.09-3.04c-1.76-2.03-2.64-4.64-2.64-7.84 c0-3.13,0.92-5.72,2.76-7.77c1.84-2.05,4.16-3.07,6.96-3.07C348.7,167.27,350.3,167.7,351.72,168.56 M310.05,188.63h-1.66v-21.01 h1.66V188.63z M266.71,167.62V177h12.3v-9.38h1.64v21.01h-1.64v-10.12h-12.3v10.12h-1.65v-21.01H266.71z M212.49,167.62v1.51 h-11.16V177h10.22v1.51h-10.22v8.62h11.16v1.5h-12.82v-21.01H212.49z M171.48,188.63h2.07l-5.66-9.23c1.22-0.23,2.27-0.76,3.15-1.6 c1.19-1.15,1.79-2.56,1.79-4.24c0-1.67-0.6-3.08-1.8-4.22c-1.19-1.14-2.7-1.72-4.53-1.72h-6.91v21.01h1.65v-9.11H166L171.48,188.63 z M166.2,169.13c1.43,0,2.59,0.43,3.49,1.29c0.9,0.86,1.35,1.91,1.35,3.15c0,1.24-0.45,2.29-1.35,3.15 c-0.9,0.86-2.07,1.29-3.49,1.29h-4.97v-8.87H166.2z M131.84,188.63h-1.65v-21.01h1.65V188.63z M91.44,178.01h4.97 c1.43,0,2.59-0.43,3.49-1.29c0.9-0.86,1.35-1.91,1.35-3.15c0-1.24-0.45-2.29-1.35-3.15c-0.9-0.86-2.07-1.29-3.49-1.29h-4.97V178.01 z M96.7,167.62c1.83,0,3.34,0.57,4.53,1.72c1.2,1.15,1.79,2.56,1.79,4.23c0,1.67-0.6,3.08-1.79,4.23c-1.2,1.15-2.71,1.72-4.53,1.72 h-5.26v9.11h-1.66v-21.01H96.7z M50.32,168.84c-1.19,1.03-1.79,2.36-1.79,4c0,1.69,0.78,3.08,2.34,4.16 c0.66,0.46,2.14,1.03,4.42,1.7c1.78,0.5,3.08,1.04,3.9,1.6c1.03,0.71,1.55,1.7,1.55,2.96c0,1.21-0.51,2.22-1.52,3.02 c-0.85,0.68-2.13,1.02-3.84,1.02c-2.34,0-4.55-0.85-6.62-2.55l-1.1,1.48c2.3,1.84,4.85,2.75,7.63,2.75c2.11,0,3.85-0.52,5.22-1.56 c1.41-1.08,2.11-2.51,2.11-4.31c0-1.8-0.77-3.25-2.3-4.36c-1.03-0.66-2.5-1.26-4.41-1.79c-1.8-0.5-3.12-1.02-3.96-1.55 c-1.02-0.62-1.52-1.53-1.52-2.71c0-1.06,0.4-1.95,1.19-2.68c0.84-0.75,2.08-1.13,3.72-1.13c2.13,0,3.97,0.74,5.54,2.21l1.11-1.5 c-1.97-1.59-4.2-2.38-6.69-2.38C53.23,167.24,51.57,167.77,50.32,168.84 M7.78,181.31h9.55l-4.77-11.6L7.78,181.31z M13.47,167.62 l8.66,21.01h-1.79l-2.39-5.81H7.14l-2.36,5.81H2.97l8.69-21.01H13.47z"></path> </g> </svg> 