<svg width="324" height="230" viewBox="0 0 324 230" fill="none" xmlns="http://www.w3.org/2000/svg">
<rect width="324" height="230" fill="#00477B"/>
<path d="M54.81 116.13L61.11 115.995C61.35 115.995 61.47 116.25 61.47 116.76C61.47 117.27 61.35 117.525 61.11 117.525H59.715C58.965 117.525 58.47 117.675 58.23 117.975C57.99 118.245 57.87 119.115 57.87 120.585C57.87 122.025 57.9 123.51 57.96 125.04C58.05 126.54 58.125 127.59 58.185 128.19C58.275 128.76 58.35 129.255 58.41 129.675C58.5 130.095 58.545 130.395 58.545 130.575C58.545 130.935 58.305 131.115 57.825 131.115C57.645 131.115 57.345 130.56 56.925 129.45C56.535 128.34 56.13 127.785 55.71 127.785C52.95 128.985 50.055 129.585 47.025 129.585C41.835 129.585 37.545 128.295 34.155 125.715C30.765 123.135 29.07 119.55 29.07 114.96C29.07 111.48 29.955 108.45 31.725 105.87C33.525 103.29 35.805 101.385 38.565 100.155C41.325 98.895 44.325 98.265 47.565 98.265C48.975 98.265 50.175 98.4 51.165 98.67C52.155 98.91 53.385 99.315 54.855 99.885V98.94C54.855 98.67 55.065 98.535 55.485 98.535C55.935 98.535 56.16 98.67 56.16 98.94C56.16 101.67 56.295 103.935 56.565 105.735C56.595 105.855 56.52 105.96 56.34 106.05C56.19 106.14 55.95 106.185 55.62 106.185C55.32 106.185 55.155 106.05 55.125 105.78L54.81 103.8C52.2 101.43 49.455 100.245 46.575 100.245C43.185 100.245 40.35 101.46 38.07 103.89C35.79 106.29 34.65 109.65 34.65 113.97C34.65 118.26 35.85 121.605 38.25 124.005C40.65 126.375 43.665 127.56 47.295 127.56C49.665 127.56 51.465 126.93 52.695 125.67V121.53C52.695 118.89 52.38 117.57 51.75 117.57H46.98C46.74 117.57 46.62 117.33 46.62 116.85C46.62 116.34 46.74 116.085 46.98 116.085L54.81 116.13ZM64.0821 107.265L68.6721 107.355H77.9871V106.635C77.9871 106.455 78.1821 106.365 78.5721 106.365C78.9921 106.365 79.2021 106.455 79.2021 106.635C79.2021 109.005 79.3071 110.7 79.5171 111.72C79.5771 111.9 79.4121 111.99 79.0221 111.99C78.5121 111.99 78.2571 111.9 78.2571 111.72C77.8371 110.34 77.4321 109.56 77.0421 109.38C75.7821 108.93 73.9521 108.705 71.5521 108.705C71.1321 108.735 70.8471 108.855 70.6971 109.065C70.5471 109.275 70.4721 109.65 70.4721 110.19V117.57C74.1021 117.45 76.0971 117.285 76.4571 117.075L76.7721 115.185C76.8321 115.035 77.0421 114.96 77.4021 114.96C77.7921 114.96 77.9871 115.065 77.9871 115.275C77.8671 116.145 77.8071 117.12 77.8071 118.2C77.8071 119.25 77.8671 120.21 77.9871 121.08C77.9871 121.26 77.7771 121.35 77.3571 121.35C76.9671 121.35 76.7721 121.29 76.7721 121.17L76.4121 119.235C76.0521 119.025 74.0721 118.86 70.4721 118.74V124.185C70.4721 126.435 70.7721 127.56 71.3721 127.56H72.8121C76.1121 127.5 78.3921 127.035 79.6521 126.165L79.8771 124.41C79.9371 124.23 80.0871 124.14 80.3271 124.14C80.5971 124.14 80.7771 124.14 80.8671 124.14C81.0471 124.2 81.1371 124.29 81.1371 124.41C80.9571 125.67 80.8671 127.44 80.8671 129.72C80.8671 129.87 80.6571 129.945 80.2371 129.945C79.8471 129.945 79.6521 129.87 79.6521 129.72V129H71.6421L63.9921 129.09C63.7821 129.09 63.6771 128.865 63.6771 128.415C63.6771 127.965 63.7671 127.74 63.9471 127.74H65.9721C66.3021 127.74 66.4971 127.68 66.5571 127.56C66.6171 127.41 66.6471 127.035 66.6471 126.435V112.26C66.6471 109.86 66.3471 108.66 65.7471 108.66H64.1271C63.7671 108.66 63.5871 108.435 63.5871 107.985C63.5871 107.505 63.7521 107.265 64.0821 107.265ZM85.4679 107.265L90.0579 107.355H99.3729V106.635C99.3729 106.455 99.5679 106.365 99.9579 106.365C100.378 106.365 100.588 106.455 100.588 106.635C100.588 109.005 100.693 110.7 100.903 111.72C100.963 111.9 100.798 111.99 100.408 111.99C99.8979 111.99 99.6429 111.9 99.6429 111.72C99.2229 110.34 98.8179 109.56 98.4279 109.38C97.1679 108.93 95.3379 108.705 92.9379 108.705C92.5179 108.735 92.2329 108.855 92.0829 109.065C91.9329 109.275 91.8579 109.65 91.8579 110.19V117.57C95.4879 117.45 97.4829 117.285 97.8429 117.075L98.1579 115.185C98.2179 115.035 98.4279 114.96 98.7879 114.96C99.1779 114.96 99.3729 115.065 99.3729 115.275C99.2529 116.145 99.1929 117.12 99.1929 118.2C99.1929 119.25 99.2529 120.21 99.3729 121.08C99.3729 121.26 99.1629 121.35 98.7429 121.35C98.3529 121.35 98.1579 121.29 98.1579 121.17L97.7979 119.235C97.4379 119.025 95.4579 118.86 91.8579 118.74V124.185C91.8579 126.435 92.1579 127.56 92.7579 127.56H94.1979C97.4979 127.5 99.7779 127.035 101.038 126.165L101.263 124.41C101.323 124.23 101.473 124.14 101.713 124.14C101.983 124.14 102.163 124.14 102.253 124.14C102.433 124.2 102.523 124.29 102.523 124.41C102.343 125.67 102.253 127.44 102.253 129.72C102.253 129.87 102.043 129.945 101.623 129.945C101.233 129.945 101.038 129.87 101.038 129.72V129H93.0279L85.3779 129.09C85.1679 129.09 85.0629 128.865 85.0629 128.415C85.0629 127.965 85.1529 127.74 85.3329 127.74H87.3579C87.6879 127.74 87.8829 127.68 87.9429 127.56C88.0029 127.41 88.0329 127.035 88.0329 126.435V112.26C88.0329 109.86 87.7329 108.66 87.1329 108.66H85.5129C85.1529 108.66 84.9729 108.435 84.9729 107.985C84.9729 107.505 85.1379 107.265 85.4679 107.265ZM122.379 111.765C122.379 111.915 122.169 111.99 121.749 111.99C121.329 111.99 121.119 111.9 121.119 111.72C120.699 110.34 120.294 109.56 119.904 109.38C118.644 108.93 116.784 108.705 114.324 108.705C113.904 108.735 113.619 108.855 113.469 109.065C113.319 109.275 113.244 109.65 113.244 110.19V117.57C116.934 117.45 118.959 117.285 119.319 117.075L119.634 115.185C119.694 115.035 119.904 114.96 120.264 114.96C120.654 114.96 120.849 115.065 120.849 115.275C120.729 116.145 120.669 117.12 120.669 118.2C120.669 119.25 120.729 120.21 120.849 121.08C120.849 121.26 120.639 121.35 120.219 121.35C119.829 121.35 119.634 121.29 119.634 121.17L119.274 119.235C118.914 119.025 116.904 118.86 113.244 118.74V124.185C113.244 126.465 113.544 127.605 114.144 127.605H116.394C116.634 127.605 116.754 127.845 116.754 128.325C116.754 128.775 116.664 129 116.484 129L111.264 128.955L106.764 129.09C106.554 129.09 106.449 128.865 106.449 128.415C106.449 127.965 106.539 127.74 106.719 127.74H108.744C109.074 127.74 109.269 127.68 109.329 127.56C109.389 127.41 109.419 127.035 109.419 126.435V112.26C109.419 109.86 109.119 108.66 108.519 108.66H106.899C106.539 108.66 106.359 108.435 106.359 107.985C106.359 107.505 106.524 107.265 106.854 107.265L111.444 107.355H120.849V106.635C120.849 106.455 121.044 106.365 121.434 106.365C121.854 106.365 122.064 106.455 122.064 106.635L122.379 111.765ZM165.107 122.745C165.167 122.415 165.422 122.25 165.872 122.25C166.352 122.25 166.592 122.385 166.592 122.655L166.232 128.91C166.232 129.15 165.992 129.27 165.512 129.27C165.062 129.27 164.837 129.15 164.837 128.91V127.83C161.897 129 159.017 129.585 156.197 129.585C151.037 129.585 146.747 128.295 143.327 125.715C139.907 123.105 138.197 119.505 138.197 114.915C138.197 111.465 139.097 108.45 140.897 105.87C142.697 103.26 144.977 101.34 147.737 100.11C150.497 98.85 153.317 98.22 156.197 98.22C159.107 98.22 161.702 98.805 163.982 99.975V98.94C163.982 98.67 164.192 98.535 164.612 98.535C165.062 98.535 165.287 98.67 165.287 98.94C165.287 101.37 165.437 103.59 165.737 105.6C165.797 105.9 165.572 106.05 165.062 106.05C164.552 106.05 164.282 105.9 164.252 105.6L163.892 103.485C161.552 101.325 158.747 100.245 155.477 100.245C152.237 100.245 149.477 101.445 147.197 103.845C144.917 106.215 143.777 109.59 143.777 113.97C143.777 118.32 144.977 121.68 147.377 124.05C149.807 126.39 152.837 127.56 156.467 127.56C159.407 127.56 162.197 126.66 164.837 124.86L165.107 122.745ZM171.452 129L167.897 129.09C167.687 129.09 167.582 128.895 167.582 128.505C167.582 128.115 167.687 127.92 167.897 127.92H169.337C169.667 127.92 169.907 127.785 170.057 127.515C170.747 126.375 172.127 123.345 174.197 118.425C176.267 113.475 177.752 109.725 178.652 107.175C178.772 106.905 179.057 106.77 179.507 106.77C179.987 106.77 180.287 106.92 180.407 107.22C180.767 108.72 181.817 111.555 183.557 115.725C185.327 119.895 186.872 123.375 188.192 126.165C188.552 126.885 188.882 127.35 189.182 127.56C189.482 127.77 189.947 127.875 190.577 127.875C190.757 127.875 190.847 128.085 190.847 128.505C190.847 128.895 190.772 129.09 190.622 129.09L186.302 129L181.442 129.09C181.262 129.09 181.172 128.895 181.172 128.505C181.172 128.115 181.262 127.92 181.442 127.92H183.602C183.932 127.92 184.097 127.785 184.097 127.515C184.097 127.485 183.257 125.175 181.577 120.585H175.322C173.852 124.215 173.117 126.345 173.117 126.975C173.117 127.575 173.297 127.875 173.657 127.875H175.502C175.742 127.875 175.862 128.085 175.862 128.505C175.862 128.895 175.772 129.09 175.592 129.09L171.452 129ZM180.992 119.055C180.902 118.785 180.122 116.505 178.652 112.215H178.517C177.797 114.285 176.942 116.565 175.952 119.055H180.992ZM198.177 129L193.362 129.09C193.152 129.09 193.047 128.865 193.047 128.415C193.047 127.965 193.122 127.74 193.272 127.74H195.477C195.837 127.74 196.017 127.485 196.017 126.975V112.215C196.017 109.845 195.687 108.66 195.027 108.66H193.452C193.122 108.66 192.957 108.435 192.957 107.985C192.957 107.505 193.092 107.265 193.362 107.265C196.032 107.325 198.762 107.355 201.552 107.355C204.342 107.355 206.502 107.925 208.032 109.065C209.562 110.205 210.327 111.675 210.327 113.475C210.327 114.855 209.697 116.175 208.437 117.435C207.177 118.665 205.512 119.28 203.442 119.28C202.092 119.28 200.892 119.1 199.842 118.74V124.635C199.842 126.615 200.142 127.605 200.742 127.605H202.992C203.232 127.605 203.352 127.845 203.352 128.325C203.352 128.775 203.277 129 203.127 129H198.177ZM200.742 108.705C200.142 108.705 199.842 109.2 199.842 110.19V117.21C200.172 117.27 200.667 117.3 201.327 117.3C202.767 117.3 203.907 116.91 204.747 116.13C205.617 115.32 206.052 114.345 206.052 113.205C206.052 112.065 205.617 111.03 204.747 110.1C203.877 109.17 202.542 108.705 200.742 108.705ZM213.651 107.265L217.206 107.355C217.536 107.355 217.821 107.355 218.061 107.355L222.741 107.265C222.951 107.265 223.056 107.49 223.056 107.94C223.056 108.36 222.936 108.57 222.696 108.57H220.626C220.236 108.57 220.041 108.81 220.041 109.29V124.185C220.041 126.465 220.341 127.605 220.941 127.605H223.191C223.431 127.605 223.551 127.845 223.551 128.325C223.551 128.775 223.461 129 223.281 129L218.061 128.955L213.561 129.09C213.351 129.09 213.246 128.865 213.246 128.415C213.246 127.965 213.336 127.74 213.516 127.74H215.541C215.871 127.74 216.066 127.68 216.126 127.56C216.186 127.41 216.216 127.035 216.216 126.435V112.26C216.216 109.86 215.916 108.66 215.316 108.66H213.696C213.336 108.66 213.156 108.435 213.156 107.985C213.156 107.505 213.321 107.265 213.651 107.265ZM247.99 112.08C247.99 112.26 247.78 112.35 247.36 112.35C246.97 112.35 246.775 112.245 246.775 112.035C246.475 110.565 246.025 109.755 245.425 109.605C244.345 109.365 242.71 109.215 240.52 109.155H239.665C239.365 109.185 239.215 109.425 239.215 109.875V124.185C239.215 126.465 239.515 127.605 240.115 127.605H242.365C242.605 127.605 242.725 127.845 242.725 128.325C242.725 128.775 242.635 129 242.455 129L237.235 128.955L232.735 129.09C232.525 129.09 232.42 128.865 232.42 128.415C232.42 127.965 232.51 127.74 232.69 127.74H234.715C235.045 127.74 235.24 127.68 235.3 127.56C235.36 127.41 235.39 127.035 235.39 126.435V112.755C235.39 110.505 235.12 109.305 234.58 109.155C232.15 109.155 230.335 109.305 229.135 109.605C228.535 109.755 228.085 110.565 227.785 112.035C227.785 112.245 227.575 112.35 227.155 112.35C226.765 112.35 226.57 112.26 226.57 112.08L226.795 106.68C226.795 106.5 226.99 106.41 227.38 106.41C227.8 106.41 228.01 106.5 228.01 106.68V107.265C228.01 107.265 229.975 107.295 233.905 107.355H237.235C241.795 107.355 244.855 107.325 246.415 107.265H246.55V106.68C246.55 106.5 246.745 106.41 247.135 106.41C247.555 106.41 247.765 106.5 247.765 106.68L247.99 112.08ZM251.546 129L247.991 129.09C247.781 129.09 247.676 128.895 247.676 128.505C247.676 128.115 247.781 127.92 247.991 127.92H249.431C249.761 127.92 250.001 127.785 250.151 127.515C250.841 126.375 252.221 123.345 254.291 118.425C256.361 113.475 257.846 109.725 258.746 107.175C258.866 106.905 259.151 106.77 259.601 106.77C260.081 106.77 260.381 106.92 260.501 107.22C260.861 108.72 261.911 111.555 263.651 115.725C265.421 119.895 266.966 123.375 268.286 126.165C268.646 126.885 268.976 127.35 269.276 127.56C269.576 127.77 270.041 127.875 270.671 127.875C270.851 127.875 270.941 128.085 270.941 128.505C270.941 128.895 270.866 129.09 270.716 129.09L266.396 129L261.536 129.09C261.356 129.09 261.266 128.895 261.266 128.505C261.266 128.115 261.356 127.92 261.536 127.92H263.696C264.026 127.92 264.191 127.785 264.191 127.515C264.191 127.485 263.351 125.175 261.671 120.585H255.416C253.946 124.215 253.211 126.345 253.211 126.975C253.211 127.575 253.391 127.875 253.751 127.875H255.596C255.836 127.875 255.956 128.085 255.956 128.505C255.956 128.895 255.866 129.09 255.686 129.09L251.546 129ZM261.086 119.055C260.996 118.785 260.216 116.505 258.746 112.215H258.611C257.891 114.285 257.036 116.565 256.046 119.055H261.086ZM273.546 107.265L277.101 107.355C277.431 107.355 277.716 107.355 277.956 107.355L282.636 107.265C282.846 107.265 282.951 107.49 282.951 107.94C282.951 108.36 282.831 108.57 282.591 108.57H280.521C280.131 108.57 279.936 108.81 279.936 109.29V124.185C279.936 126.435 280.236 127.56 280.836 127.56H282.006C285.306 127.5 287.586 127.035 288.846 126.165L289.071 124.41C289.131 124.23 289.281 124.14 289.521 124.14C289.791 124.14 289.971 124.14 290.061 124.14C290.241 124.2 290.331 124.29 290.331 124.41C290.151 125.67 290.061 127.44 290.061 129.72C290.061 129.87 289.851 129.945 289.431 129.945C289.041 129.945 288.846 129.87 288.846 129.72V129H281.106L273.456 129.09C273.246 129.09 273.141 128.865 273.141 128.415C273.141 127.965 273.231 127.74 273.411 127.74H275.436C275.766 127.74 275.961 127.68 276.021 127.56C276.081 127.41 276.111 127.035 276.111 126.435V112.26C276.111 109.86 275.811 108.66 275.211 108.66H273.591C273.231 108.66 273.051 108.435 273.051 107.985C273.051 107.505 273.216 107.265 273.546 107.265Z" fill="white"/>
</svg>
