<?xml version="1.0" encoding="UTF-8"?> <svg xmlns="http://www.w3.org/2000/svg" xmlns:xlink="http://www.w3.org/1999/xlink" width="499px" height="77px" viewBox="0 0 499 77"><!-- Generator: sketchtool 53.2 (72643) - https://sketchapp.com --><title>66C9293B-9141-485B-91E3-668448D77E69@2x</title><desc>Created with sketchtool.</desc><g id="Page-1" stroke="none" stroke-width="1" fill="none" fill-rule="evenodd"><g id="Mobile-Copy-2" transform="translate(-71.000000, -355.000000)" fill="#FFFFFF"><g id="Group-13" transform="translate(71.000000, 355.000000)"><g id="LOGO" transform="translate(103.000000, 0.000000)"><path d="M291.465929,21.8932737 L282.894073,0 L277.974914,0 L269.131297,21.8932737 L275.318673,21.8932737 L276.344934,18.7275256 L284.161705,18.7275256 L285.218357,21.8932737 L291.465929,21.8932737 Z M282.683093,14.2899785 L277.763349,14.2899785 L280.17822,6.65689346 L282.683093,14.2899785 Z" id="Fill-1"></path><g id="Group-6"><path d="M0.325173804,14.3586488 C0.172304195,18.4488597 2.55659608,21.6649816 8.48651487,21.6649816 C14.4780555,21.6649816 16.3735202,18.3081954 16.3735202,14.9793231 C16.3735202,12.5530011 15.3034329,10.7479007 11.0852982,8.99862809 C7.01944064,7.30627803 6.4079622,7.05231606 6.4079622,6.09339067 C6.4079622,5.10600403 7.3862092,4.45741579 8.39526712,4.45741579 C10.1680806,4.45741579 10.3511686,5.78305352 10.4738198,6.48801693 L16.1898396,6.48801693 C16.0979994,1.46679461 11.6961841,-5.47331843e-05 8.57835514,-5.47331843e-05 C4.78801836,-5.47331843e-05 0.661131434,2.22868053 0.661131434,6.43164175 C0.661131434,10.3527271 4.60493034,11.8195764 6.19406326,12.4123368 C9.67866082,13.7664358 10.6266894,14.1046869 10.6266894,15.2048239 C10.6266894,16.1642966 9.80131202,17.2080584 8.42548553,17.2080584 C7.69194842,17.2080584 6.07200457,16.7844236 6.07200457,14.3586488 L0.325173804,14.3586488 Z" id="Fill-2"></path><path d="M69.5088632,7.44721598 C69.5088632,5.33177841 68.6224565,3.27216869 66.8496431,1.91806971 C65.6266862,0.987058245 64.0677717,0.394845191 59.8798554,0.394845191 L52.4828624,0.394845191 L52.4828624,21.2700817 L58.2599116,21.2700817 L58.2599116,14.7250875 L60.5221448,14.7250875 C64.0369608,14.7250875 65.5656568,14.1328744 67.1245714,12.9199871 C68.5614272,11.7913888 69.5088632,9.56265356 69.5088632,7.44721598 M63.9759314,7.53205242 C63.9759314,8.77285371 63.3650455,9.42198927 62.6006975,9.73232643 C61.8363494,10.0426636 60.9191318,10.0426636 60.3692752,10.0426636 L58.2599116,10.0426636 L58.2599116,5.07781644 L60.1553762,5.07781644 C60.7970731,5.07781644 61.7445091,5.07781644 62.5396681,5.38815359 C63.3342346,5.69849075 63.9759314,6.2907038 63.9759314,7.53205242" id="Fill-4"></path></g><polygon id="Fill-7" points="111.174948 21.8932737 111.174948 13.1359642 117.997795 13.1359642 117.997795 21.8932737 123.32601 21.8932737 123.32601 0 117.997795 0 117.997795 8.22518927 111.174948 8.22518927 111.174948 0 105.846733 0 105.846733 21.8932737"></polygon><polygon id="Fill-8" points="162.168848 21.8932737 176.734912 21.8932737 176.734912 16.9819247 168.738941 16.9819247 168.738941 13.2249379 176.49165 13.2249379 176.49165 8.31358896 168.738941 8.31358896 168.738941 4.91134897 176.734912 4.91134897 176.734912 0 162.168848 0"></polygon><g id="Group-15" transform="translate(0.971071, 0.000000)"><path d="M234.046051,7.77505501 C234.046051,5.5664923 233.137672,3.41621508 231.320916,2.00250638 C230.067342,1.03051022 228.469767,0.412226944 224.178113,0.412226944 L216.596948,0.412226944 L216.596948,22.2064266 L222.517829,22.2064266 L222.517829,15.3733107 L224.776532,15.3733107 L228.706268,22.2064266 L234.814678,22.2064266 L230.161704,14.4293144 C230.672928,14.1698869 231.136971,13.8573167 231.602806,13.4887467 C233.074964,12.3104657 234.046051,9.98361772 234.046051,7.77505501 M228.376003,7.86362609 C228.376003,9.15904955 227.749515,9.83676116 226.966553,10.1607599 C226.182995,10.4847586 225.243561,10.4847586 224.678587,10.4847586 L222.517829,10.4847586 L222.517829,5.30135049 L224.460003,5.30135049 C225.118144,5.30135049 226.089231,5.30135049 226.903845,5.62534921 C227.717862,5.94934794 228.376003,6.56763121 228.376003,7.86362609" id="Fill-9"></path></g></g><path d="M10.736562,55 L19.5869159,76.0833333 L17.7600033,76.0833333 L15.3186673,70.2549549 L4.26722621,70.2549549 L1.85656032,76.0833333 L0,76.0833333 L8.88000164,55 L10.736562,55 Z M4.6635514,68.75 L14.9233645,68.75 L9.79345794,56.8333333 L4.6635514,68.75 Z M49.4462432,56.6175727 C48.1824223,57.6558522 47.5515721,59.0034925 47.5515721,60.6604935 C47.5515721,62.3670328 48.3796292,63.7712881 50.0368037,64.8692156 C50.7408113,65.3383117 52.3036234,65.91255 54.7263001,66.5919305 C56.6103687,67.1004549 57.9876366,67.6403198 58.8581038,68.2095032 C59.9544048,68.9283121 60.5036155,69.9261523 60.5036155,71.2040347 C60.5036155,72.431368 59.9650073,73.4504389 58.8888511,74.2592252 C57.9876366,74.9487156 56.6315737,75.2924498 54.8196024,75.2924498 C52.3343707,75.2924498 49.9943936,74.4341253 47.7996712,72.7164652 L46.635514,74.214742 C49.0783356,76.0719177 51.7756177,77 54.7263001,77 C56.9623725,77 58.8061514,76.4752998 60.2555165,75.4269105 C61.7462313,74.3390929 62.4915888,72.8863104 62.4915888,71.069574 C62.4915888,69.2528376 61.6783752,67.7848904 60.0530082,66.6657323 C58.955647,65.9974725 57.3981362,65.3939157 55.3783554,64.8530398 C53.4741421,64.3445154 52.0756691,63.8208262 51.1850571,63.2819723 C50.1089009,62.6531409 49.5702927,61.7392124 49.5702927,60.5411976 C49.5702927,59.4725886 49.9901526,58.5697808 50.8288123,57.8307523 C51.7183641,57.0715041 53.0341373,56.6923855 54.7729513,56.6923855 C57.0302286,56.6923855 58.9863943,57.4354579 60.6435688,58.9236248 L61.8236298,57.4111943 C59.732812,55.8037314 57.3663286,55 54.7263001,55 C52.5315777,55 50.7715587,55.5378429 49.4462432,56.6175727 L49.4462432,56.6175727 Z M97.7777894,55 C99.7070248,55 101.303451,55.5751095 102.567069,56.7243248 C103.831743,57.8745438 104.463551,59.288731 104.463551,60.9698975 C104.463551,62.6500603 103.831743,64.0642475 102.567069,65.2144665 C101.303451,66.3646855 99.7070248,66.9387913 97.7777894,66.9387913 L92.2214648,66.9387913 L92.2214648,76.0833333 L90.4728972,76.0833333 L90.4728972,55 L97.7777894,55 Z M92.3383178,66 L97.5299044,66 C99.0206823,66 100.237558,65.5568015 101.181578,64.6693715 C102.126644,63.7798753 102.598131,62.69719 102.598131,61.4171832 C102.598131,60.1361434 102.126644,59.052425 101.181578,58.1649949 C100.237558,57.2765318 99.0206823,56.8333333 97.5299044,56.8333333 L92.3383178,56.8333333 L92.3383178,66 Z M132.44486,76.0833333 L134.31028,76.0833333 L134.31028,55 L132.44486,55 L132.44486,76.0833333 Z M170.281306,56.8333333 C171.772084,56.8333333 172.98896,57.2765318 173.93298,58.1649949 C174.878045,59.052425 175.349533,60.1361434 175.349533,61.4171832 C175.349533,62.69719 174.878045,63.7798753 173.93298,64.6693715 C172.98896,65.5568015 171.772084,66 170.281306,66 L165.08972,66 L165.08972,56.8333333 L170.281306,56.8333333 Z M175.939091,76.0833333 L178.147664,76.0833333 L172.102418,66.8193532 C173.407678,66.5925212 174.530137,66.057559 175.469796,65.2144665 C176.742986,64.0642475 177.380115,62.6470493 177.380115,60.9608644 C177.380115,59.2867236 176.737641,57.8745438 175.453761,56.7243248 C174.180571,55.5751095 172.567437,55 170.615427,55 L163.224299,55 L163.224299,76.0833333 L164.993509,76.0833333 L164.993509,66.9387913 L170.08306,66.9387913 L175.939091,76.0833333 Z M218.254206,55 L218.254206,56.5165627 L206.882374,56.5165627 L206.882374,64.4115213 L217.299591,64.4115213 L217.299591,65.928084 L206.882374,65.928084 L206.882374,74.5818258 L218.254206,74.5818258 L218.254206,76.0833333 L205.196262,76.0833333 L205.196262,55 L218.254206,55 Z M275.899097,55 L275.899097,64.4115213 L288.40587,64.4115213 L288.40587,55 L290.072897,55 L290.072897,76.0833333 L288.40587,76.0833333 L288.40587,65.928084 L275.899097,65.928084 L275.899097,76.0833333 L274.216822,76.0833333 L274.216822,55 L275.899097,55 Z M318.986916,76.0833333 L320.852336,76.0833333 L320.852336,55 L318.986916,55 L318.986916,76.0833333 Z M364.243544,56.3058574 C365.751716,57.1760914 366.962501,58.3867195 367.8759,59.9377418 L366.257272,60.6884325 C365.531862,59.407902 364.556862,58.4100203 363.333331,57.6947873 C362.108738,56.9795542 360.719521,56.6209247 359.163556,56.6209247 C356.675073,56.6209247 354.646477,57.4921717 353.080953,59.2316265 C351.514366,60.9731074 350.731604,63.2332842 350.731604,66.0162092 C350.731604,68.7971081 351.497373,71.058298 353.025724,72.799779 C354.556199,74.5402468 356.601789,75.4104808 359.163556,75.4104808 C361.683901,75.4104808 363.684884,74.59394 365.168627,72.9638976 C366.651308,71.3338552 367.450001,69.17296 367.564707,66.481212 L358.883164,66.481212 L358.883164,64.9646344 L369.32247,64.9646344 C369.34265,65.1854854 369.353271,65.5258795 369.353271,65.9848038 C369.353271,69.2276662 368.437747,71.8738258 366.607762,73.9253085 C364.776715,75.9757782 362.296729,77 359.163556,77 C356.011266,77 353.500479,75.9757782 351.633321,73.9253085 C349.767224,71.8738258 348.833645,69.2276662 348.833645,65.9848038 C348.833645,62.81387 349.81077,60.1910112 351.766082,58.1142015 C353.721394,56.0384049 356.187573,55 359.163556,55 C361.040273,55 362.735373,55.4356235 364.243544,56.3058574 L364.243544,56.3058574 Z M399.017763,55 L399.017763,64.4115213 L411.523734,64.4115213 L411.523734,55 L413.190654,55 L413.190654,76.0833333 L411.523734,76.0833333 L411.523734,65.928084 L399.017763,65.928084 L399.017763,76.0833333 L397.334579,76.0833333 L397.334579,55 L399.017763,55 Z M456.095327,55 L456.095327,56.5165627 L444.723495,56.5165627 L444.723495,64.4115213 L455.140713,64.4115213 L455.140713,65.928084 L444.723495,65.928084 L444.723495,74.5818258 L456.095327,74.5818258 L456.095327,76.0833333 L443.037383,76.0833333 L443.037383,55 L456.095327,55 Z M491.133643,56.8333333 C492.624421,56.8333333 493.842342,57.2765318 494.785317,58.1649949 C495.730382,59.052425 496.201869,60.1361434 496.201869,61.4171832 C496.201869,62.69719 495.730382,63.7798753 494.785317,64.6693715 C493.842342,65.5568015 492.624421,66 491.133643,66 L485.942056,66 L485.942056,56.8333333 L491.133643,56.8333333 Z M496.790359,76.0833333 L499,76.0833333 L492.954755,66.8193532 C494.258945,66.5925212 495.381405,66.057559 496.321064,65.2144665 C497.594253,64.0642475 498.231383,62.6470493 498.231383,60.9608644 C498.231383,59.2867236 497.588908,57.8745438 496.305029,56.7243248 C495.031839,55.5751095 493.418704,55 491.466694,55 L484.076636,55 L484.076636,76.0833333 L485.844776,76.0833333 L485.844776,66.9387913 L490.935397,66.9387913 L496.790359,76.0833333 Z" id="Fill-13"></path></g></g></g></svg> 