<svg width="405" height="87" viewBox="0 0 405 87" fill="none" xmlns="http://www.w3.org/2000/svg">
<path d="M9.10187 1.68L17.5019 1.5C17.8219 1.5 17.9819 1.84 17.9819 2.52C17.9819 3.2 17.8219 3.54 17.5019 3.54H14.9219C13.9219 3.54 13.2619 3.74 12.9419 4.14C12.6219 4.5 12.4619 5.22 12.4619 6.3V39.6H15.9419C22.3019 39.6 26.7019 38.76 29.1419 37.08L29.5619 33.78C29.6419 33.46 29.9819 33.3 30.5819 33.3C31.2219 33.3 31.5419 33.42 31.5419 33.66L31.0019 43.32C31.0019 43.6 30.6819 43.74 30.0419 43.74C29.4419 43.74 29.1419 43.6 29.1419 43.32V42H9.64187L1.24187 42.12C0.921874 42.12 0.761874 41.78 0.761874 41.1C0.761874 40.42 0.921874 40.08 1.24187 40.08H3.82187C4.82187 40.08 5.48187 39.9 5.80187 39.54C6.12187 39.14 6.28187 38.4 6.28187 37.32V8.88C6.28187 5.36 5.86187 3.6 5.02187 3.6H1.54187C1.22187 3.6 1.06187 3.28 1.06187 2.64C1.06187 1.96 1.22187 1.62 1.54187 1.62C1.54187 1.62 4.06187 1.64 9.10187 1.68ZM59.7108 13.14L64.6308 13.02C64.9108 13.02 65.0508 13.32 65.0508 13.92C65.0508 14.48 64.9108 14.76 64.6308 14.76H63.3708C62.6508 14.76 62.1908 14.9 61.9908 15.18C61.7908 15.42 61.6508 15.94 61.5708 16.74C61.2508 23.78 61.0908 28.6 61.0908 31.2C61.0908 34.8 59.9308 37.64 57.6108 39.72C55.3308 41.76 52.6308 42.78 49.5108 42.78C46.3908 42.78 43.6508 41.82 41.2908 39.9C38.9708 37.98 37.8108 35.28 37.8108 31.8V19.32C37.8108 16.36 37.3708 14.88 36.4908 14.88H34.3908C34.0708 14.88 33.9108 14.58 33.9108 13.98C33.9108 13.34 34.0708 13.02 34.3908 13.02L40.2108 13.14L46.5108 13.02C46.8308 13.02 46.9908 13.34 46.9908 13.98C46.9908 14.58 46.8308 14.88 46.5108 14.88H44.6508C43.9308 14.88 43.4508 15.02 43.2108 15.3C43.0108 15.58 42.9108 16.1 42.9108 16.86V30.6C42.9108 33.64 43.6108 35.88 45.0108 37.32C46.4508 38.76 48.3508 39.48 50.7108 39.48C53.0708 39.48 54.8908 38.68 56.1708 37.08C57.4908 35.44 58.1508 32.98 58.1508 29.7C58.1508 25.06 58.0908 21.44 57.9708 18.84C57.8908 16.2 57.5708 14.88 57.0108 14.88H54.6108C54.3708 14.88 54.2508 14.58 54.2508 13.98C54.2508 13.38 54.3708 13.08 54.6108 13.08L59.7108 13.14ZM84.7545 42.78C79.8745 42.78 75.8345 41.48 72.6345 38.88C69.4345 36.28 67.8345 32.72 67.8345 28.2C67.8345 23.64 69.5545 19.86 72.9945 16.86C76.4345 13.86 80.5345 12.36 85.2945 12.36C87.6145 12.36 89.8945 12.94 92.1345 14.1V13.08C92.1345 12.8 92.3745 12.66 92.8545 12.66C93.3745 12.66 93.6345 12.8 93.6345 13.08C93.6345 15.6 93.8345 18.22 94.2345 20.94C94.2745 21.06 94.1945 21.18 93.9945 21.3C93.8345 21.38 93.5745 21.42 93.2145 21.42C92.8545 21.42 92.6345 21.26 92.5545 20.94L92.0745 17.76C89.8345 15.64 87.2545 14.58 84.3345 14.58C81.4545 14.58 78.9745 15.82 76.8945 18.3C74.8545 20.78 73.8345 23.88 73.8345 27.6C73.8345 31.32 74.9145 34.42 77.0745 36.9C79.2345 39.34 81.7745 40.56 84.6945 40.56C87.6145 40.56 90.3745 39.7 92.9745 37.98L93.2745 34.56C93.2745 34.24 93.5545 34.08 94.1145 34.08C94.6745 34.08 94.9545 34.22 94.9545 34.5L94.5945 42.12C94.5945 42.36 94.3145 42.48 93.7545 42.48C93.2345 42.48 92.9745 42.36 92.9745 42.12V41.1C90.2145 42.22 87.4745 42.78 84.7545 42.78ZM100.278 13.02L105.018 13.14C105.458 13.14 105.838 13.14 106.158 13.14L112.398 13.02C112.678 13.02 112.818 13.32 112.818 13.92C112.818 14.48 112.658 14.76 112.338 14.76H109.578C109.058 14.76 108.798 15.08 108.798 15.72V35.58C108.798 38.62 109.198 40.14 109.998 40.14H112.998C113.318 40.14 113.478 40.46 113.478 41.1C113.478 41.7 113.358 42 113.118 42L106.158 41.94L100.158 42.12C99.878 42.12 99.738 41.82 99.738 41.22C99.738 40.62 99.858 40.32 100.098 40.32H102.798C103.238 40.32 103.498 40.24 103.578 40.08C103.658 39.88 103.698 39.38 103.698 38.58V19.68C103.698 16.48 103.298 14.88 102.498 14.88H100.338C99.858 14.88 99.618 14.58 99.618 13.98C99.618 13.34 99.838 13.02 100.278 13.02ZM146.056 13.14L151.576 13.02C151.816 13.02 151.936 13.32 151.936 13.92C151.936 14.48 151.816 14.76 151.576 14.76H149.476C148.916 14.76 148.556 14.9 148.396 15.18C147.676 16.42 147.316 25.42 147.316 42.18C147.316 42.58 146.976 42.78 146.296 42.78C145.656 42.78 145.196 42.64 144.916 42.36C136.916 32.84 130.476 25.12 125.596 19.2H125.416C125.536 26.28 125.656 32.2 125.776 36.96C125.776 39.04 126.076 40.08 126.676 40.08H129.076C129.316 40.08 129.436 40.4 129.436 41.04C129.436 41.64 129.316 41.94 129.076 41.94H124.096L118.636 42.06C118.436 42.06 118.336 41.78 118.336 41.22C118.336 40.62 118.436 40.32 118.636 40.32H120.076C121.316 40.32 121.956 39.92 121.996 39.12C122.596 32.64 122.896 25.06 122.896 16.38C122.256 15.62 121.716 15.18 121.276 15.06C120.836 14.94 120.016 14.88 118.816 14.88C118.576 14.88 118.456 14.58 118.456 13.98C118.456 13.34 118.576 13.02 118.816 13.02L127.276 13.14C136.996 25.46 142.716 32.76 144.436 35.04H144.556C144.396 24.56 144.256 18.58 144.136 17.1C144.016 15.62 143.696 14.88 143.176 14.88H141.076C140.796 14.88 140.656 14.58 140.656 13.98C140.656 13.34 140.796 13.02 141.076 13.02L146.056 13.14ZM157.172 42L152.432 42.12C152.152 42.12 152.012 41.86 152.012 41.34C152.012 40.82 152.152 40.56 152.432 40.56H154.352C154.792 40.56 155.112 40.38 155.312 40.02C156.232 38.5 158.072 34.46 160.832 27.9C163.592 21.3 165.572 16.3 166.772 12.9C166.932 12.54 167.312 12.36 167.912 12.36C168.552 12.36 168.952 12.56 169.112 12.96C169.592 14.96 170.992 18.74 173.312 24.3C175.672 29.86 177.732 34.5 179.492 38.22C179.972 39.18 180.412 39.8 180.812 40.08C181.212 40.36 181.832 40.5 182.672 40.5C182.912 40.5 183.032 40.78 183.032 41.34C183.032 41.86 182.932 42.12 182.732 42.12L176.972 42L170.492 42.12C170.252 42.12 170.132 41.86 170.132 41.34C170.132 40.82 170.252 40.56 170.492 40.56H173.372C173.812 40.56 174.032 40.38 174.032 40.02C174.032 39.98 172.912 36.9 170.672 30.78H162.332C160.372 35.62 159.392 38.46 159.392 39.3C159.392 40.1 159.632 40.5 160.112 40.5H162.572C162.892 40.5 163.052 40.78 163.052 41.34C163.052 41.86 162.932 42.12 162.692 42.12L157.172 42ZM169.892 28.74C169.772 28.38 168.732 25.34 166.772 19.62H166.592C165.632 22.38 164.492 25.42 163.172 28.74H169.892ZM238.045 33.66C238.125 33.22 238.465 33 239.065 33C239.705 33 240.025 33.18 240.025 33.54L239.545 41.88C239.545 42.2 239.225 42.36 238.585 42.36C237.985 42.36 237.685 42.2 237.685 41.88V40.44C233.765 42 229.925 42.78 226.165 42.78C219.285 42.78 213.565 41.06 209.005 37.62C204.445 34.14 202.165 29.34 202.165 23.22C202.165 18.62 203.365 14.6 205.765 11.16C208.165 7.68 211.205 5.12 214.885 3.48C218.565 1.8 222.325 0.959999 226.165 0.959999C230.045 0.959999 233.505 1.74 236.545 3.3V1.92C236.545 1.56 236.825 1.38 237.385 1.38C237.985 1.38 238.285 1.56 238.285 1.92C238.285 5.16 238.485 8.12 238.885 10.8C238.965 11.2 238.665 11.4 237.985 11.4C237.305 11.4 236.945 11.2 236.905 10.8L236.425 7.98C233.305 5.1 229.565 3.66 225.205 3.66C220.885 3.66 217.205 5.26 214.165 8.46C211.125 11.62 209.605 16.12 209.605 21.96C209.605 27.76 211.205 32.24 214.405 35.4C217.645 38.52 221.685 40.08 226.525 40.08C230.445 40.08 234.165 38.88 237.685 36.48L238.045 33.66ZM246.379 42L241.639 42.12C241.359 42.12 241.219 41.86 241.219 41.34C241.219 40.82 241.359 40.56 241.639 40.56H243.559C243.999 40.56 244.319 40.38 244.519 40.02C245.439 38.5 247.279 34.46 250.039 27.9C252.799 21.3 254.779 16.3 255.979 12.9C256.139 12.54 256.519 12.36 257.119 12.36C257.759 12.36 258.159 12.56 258.319 12.96C258.799 14.96 260.199 18.74 262.519 24.3C264.879 29.86 266.939 34.5 268.699 38.22C269.179 39.18 269.619 39.8 270.019 40.08C270.419 40.36 271.039 40.5 271.879 40.5C272.119 40.5 272.239 40.78 272.239 41.34C272.239 41.86 272.139 42.12 271.939 42.12L266.179 42L259.699 42.12C259.459 42.12 259.339 41.86 259.339 41.34C259.339 40.82 259.459 40.56 259.699 40.56H262.579C263.019 40.56 263.239 40.38 263.239 40.02C263.239 39.98 262.119 36.9 259.879 30.78H251.539C249.579 35.62 248.599 38.46 248.599 39.3C248.599 40.1 248.839 40.5 249.319 40.5H251.779C252.099 40.5 252.259 40.78 252.259 41.34C252.259 41.86 252.139 42.12 251.899 42.12L246.379 42ZM259.099 28.74C258.979 28.38 257.939 25.34 255.979 19.62H255.799C254.839 22.38 253.699 25.42 252.379 28.74H259.099ZM281.885 42L275.465 42.12C275.185 42.12 275.045 41.82 275.045 41.22C275.045 40.62 275.145 40.32 275.345 40.32H278.285C278.765 40.32 279.005 39.98 279.005 39.3V19.62C279.005 16.46 278.565 14.88 277.685 14.88H275.585C275.145 14.88 274.925 14.58 274.925 13.98C274.925 13.34 275.105 13.02 275.465 13.02C279.025 13.1 282.665 13.14 286.385 13.14C290.105 13.14 292.985 13.9 295.025 15.42C297.065 16.94 298.085 18.9 298.085 21.3C298.085 23.14 297.245 24.9 295.565 26.58C293.885 28.22 291.665 29.04 288.905 29.04C287.105 29.04 285.505 28.8 284.105 28.32V36.18C284.105 38.82 284.505 40.14 285.305 40.14H288.305C288.625 40.14 288.785 40.46 288.785 41.1C288.785 41.7 288.685 42 288.485 42H281.885ZM285.305 14.94C284.505 14.94 284.105 15.6 284.105 16.92V26.28C284.545 26.36 285.205 26.4 286.085 26.4C288.005 26.4 289.525 25.88 290.645 24.84C291.805 23.76 292.385 22.46 292.385 20.94C292.385 19.42 291.805 18.04 290.645 16.8C289.485 15.56 287.705 14.94 285.305 14.94ZM302.391 13.02L307.131 13.14C307.571 13.14 307.951 13.14 308.271 13.14L314.511 13.02C314.791 13.02 314.931 13.32 314.931 13.92C314.931 14.48 314.771 14.76 314.451 14.76H311.691C311.171 14.76 310.911 15.08 310.911 15.72V35.58C310.911 38.62 311.311 40.14 312.111 40.14H315.111C315.431 40.14 315.591 40.46 315.591 41.1C315.591 41.7 315.471 42 315.231 42L308.271 41.94L302.271 42.12C301.991 42.12 301.851 41.82 301.851 41.22C301.851 40.62 301.971 40.32 302.211 40.32H304.911C305.351 40.32 305.611 40.24 305.691 40.08C305.771 39.88 305.811 39.38 305.811 38.58V19.68C305.811 16.48 305.411 14.88 304.611 14.88H302.451C301.971 14.88 301.731 14.58 301.731 13.98C301.731 13.34 301.951 13.02 302.391 13.02ZM348.05 19.44C348.05 19.68 347.77 19.8 347.21 19.8C346.69 19.8 346.43 19.66 346.43 19.38C346.03 17.42 345.43 16.34 344.63 16.14C343.19 15.82 341.01 15.62 338.09 15.54H336.95C336.55 15.58 336.35 15.9 336.35 16.5V35.58C336.35 38.62 336.75 40.14 337.55 40.14H340.55C340.87 40.14 341.03 40.46 341.03 41.1C341.03 41.7 340.91 42 340.67 42L333.71 41.94L327.71 42.12C327.43 42.12 327.29 41.82 327.29 41.22C327.29 40.62 327.41 40.32 327.65 40.32H330.35C330.79 40.32 331.05 40.24 331.13 40.08C331.21 39.88 331.25 39.38 331.25 38.58V20.34C331.25 17.34 330.89 15.74 330.17 15.54C326.93 15.54 324.51 15.74 322.91 16.14C322.11 16.34 321.51 17.42 321.11 19.38C321.11 19.66 320.83 19.8 320.27 19.8C319.75 19.8 319.49 19.68 319.49 19.44L319.79 12.24C319.79 12 320.05 11.88 320.57 11.88C321.13 11.88 321.41 12 321.41 12.24V13.02C321.41 13.02 324.03 13.06 329.27 13.14H333.71C339.79 13.14 343.87 13.1 345.95 13.02H346.13V12.24C346.13 12 346.39 11.88 346.91 11.88C347.47 11.88 347.75 12 347.75 12.24L348.05 19.44ZM352.664 42L347.924 42.12C347.644 42.12 347.504 41.86 347.504 41.34C347.504 40.82 347.644 40.56 347.924 40.56H349.844C350.284 40.56 350.604 40.38 350.804 40.02C351.724 38.5 353.564 34.46 356.324 27.9C359.084 21.3 361.064 16.3 362.264 12.9C362.424 12.54 362.804 12.36 363.404 12.36C364.044 12.36 364.444 12.56 364.604 12.96C365.084 14.96 366.484 18.74 368.804 24.3C371.164 29.86 373.224 34.5 374.984 38.22C375.464 39.18 375.904 39.8 376.304 40.08C376.704 40.36 377.324 40.5 378.164 40.5C378.404 40.5 378.524 40.78 378.524 41.34C378.524 41.86 378.424 42.12 378.224 42.12L372.464 42L365.984 42.12C365.744 42.12 365.624 41.86 365.624 41.34C365.624 40.82 365.744 40.56 365.984 40.56H368.864C369.304 40.56 369.524 40.38 369.524 40.02C369.524 39.98 368.404 36.9 366.164 30.78H357.824C355.864 35.62 354.884 38.46 354.884 39.3C354.884 40.1 355.124 40.5 355.604 40.5H358.064C358.384 40.5 358.544 40.78 358.544 41.34C358.544 41.86 358.424 42.12 358.184 42.12L352.664 42ZM365.384 28.74C365.264 28.38 364.224 25.34 362.264 19.62H362.084C361.124 22.38 359.984 25.42 358.664 28.74H365.384ZM381.871 13.02L386.611 13.14C387.051 13.14 387.431 13.14 387.751 13.14L393.991 13.02C394.271 13.02 394.411 13.32 394.411 13.92C394.411 14.48 394.251 14.76 393.931 14.76H391.171C390.651 14.76 390.391 15.08 390.391 15.72V35.58C390.391 38.58 390.791 40.08 391.591 40.08H393.151C397.551 40 400.591 39.38 402.271 38.22L402.571 35.88C402.651 35.64 402.851 35.52 403.171 35.52C403.531 35.52 403.771 35.52 403.891 35.52C404.131 35.6 404.251 35.72 404.251 35.88C404.011 37.56 403.891 39.92 403.891 42.96C403.891 43.16 403.611 43.26 403.051 43.26C402.531 43.26 402.271 43.16 402.271 42.96V42H391.951L381.751 42.12C381.471 42.12 381.331 41.82 381.331 41.22C381.331 40.62 381.451 40.32 381.691 40.32H384.391C384.831 40.32 385.091 40.24 385.171 40.08C385.251 39.88 385.291 39.38 385.291 38.58V19.68C385.291 16.48 384.891 14.88 384.091 14.88H381.931C381.451 14.88 381.211 14.58 381.211 13.98C381.211 13.34 381.431 13.02 381.871 13.02ZM154.864 64.464L158.896 64.528H168.176V63.856C168.176 63.664 168.325 63.568 168.624 63.568C168.944 63.568 169.104 63.664 169.104 63.856C169.104 65.9893 169.21 67.6107 169.424 68.72C169.466 68.8907 169.317 68.976 168.976 68.976C168.634 68.976 168.442 68.8907 168.4 68.72C168.058 67.376 167.653 66.5973 167.184 66.384C166.053 65.9573 164.24 65.7333 161.744 65.712C161.317 65.7333 161.029 65.8507 160.88 66.064C160.752 66.2773 160.688 66.6507 160.688 67.184V74.736C162.01 74.7147 163.301 74.6507 164.56 74.544C165.818 74.4373 166.501 74.352 166.608 74.288L166.928 72.4C166.949 72.2507 167.077 72.176 167.312 72.176C167.76 72.176 167.962 72.272 167.92 72.464C167.813 73.296 167.76 74.2347 167.76 75.28C167.76 76.3253 167.813 77.264 167.92 78.096C167.962 78.2667 167.802 78.352 167.44 78.352C167.098 78.352 166.928 78.288 166.928 78.16L166.576 76.24C166.448 76.176 165.765 76.0907 164.528 75.984C163.312 75.856 162.032 75.7813 160.688 75.76V81.904C160.688 83.7813 160.912 84.72 161.36 84.72H162.992C166.298 84.6773 168.56 84.2293 169.776 83.376L170 81.616C170.042 81.4453 170.224 81.36 170.544 81.36C170.885 81.36 171.056 81.424 171.056 81.552L170.768 86.704C170.768 86.8533 170.597 86.928 170.256 86.928C169.936 86.928 169.776 86.8533 169.776 86.704V86H161.872L154.704 86.064C154.533 86.064 154.448 85.8827 154.448 85.52C154.448 85.1573 154.533 84.976 154.704 84.976H156.08C156.613 84.976 156.965 84.88 157.136 84.688C157.306 84.4747 157.392 84.08 157.392 83.504V68.336C157.392 66.4587 157.168 65.52 156.72 65.52H154.864C154.693 65.52 154.608 65.3493 154.608 65.008C154.608 64.6453 154.693 64.464 154.864 64.464ZM183.476 70.48L184.148 74C184.148 74.1707 184.02 74.256 183.764 74.256C183.508 74.256 183.348 74.1707 183.284 74C183.007 73.2107 182.569 72.56 181.972 72.048C181.375 71.536 180.724 71.28 180.02 71.28C179.337 71.2587 178.729 71.4507 178.196 71.856C177.684 72.2613 177.428 72.7627 177.428 73.36C177.428 73.936 177.599 74.4693 177.94 74.96C178.303 75.4293 178.74 75.8347 179.252 76.176C179.764 76.5173 180.329 76.912 180.948 77.36C181.567 77.7867 182.132 78.2133 182.644 78.64C183.156 79.0667 183.583 79.6213 183.924 80.304C184.287 80.9867 184.468 81.7227 184.468 82.512C184.468 83.7493 183.924 84.7093 182.836 85.392C181.748 86.0747 180.564 86.416 179.284 86.416C178.025 86.416 176.863 86.1707 175.796 85.68C175.796 85.936 175.775 86.096 175.732 86.16C175.711 86.224 175.604 86.2667 175.412 86.288H175.284C175.113 86.288 175.017 86.2027 174.996 86.032C174.953 85.52 174.868 84.816 174.74 83.92C174.612 83.024 174.516 82.2987 174.452 81.744C174.452 81.5307 174.58 81.424 174.836 81.424C175.113 81.424 175.263 81.4773 175.284 81.584C175.583 82.6293 176.105 83.536 176.852 84.304C177.599 85.0507 178.377 85.424 179.188 85.424C179.999 85.424 180.671 85.232 181.204 84.848C181.737 84.4427 182.004 83.888 182.004 83.184C182.004 82.48 181.759 81.84 181.268 81.264C180.799 80.6667 180.223 80.1333 179.54 79.664C178.857 79.1947 178.175 78.7253 177.492 78.256C176.809 77.7653 176.223 77.168 175.732 76.464C175.263 75.76 175.028 74.992 175.028 74.16C175.028 72.9653 175.529 72.016 176.532 71.312C177.556 70.608 178.761 70.256 180.148 70.256C180.937 70.256 181.78 70.4053 182.676 70.704C182.633 70.576 182.612 70.4267 182.612 70.256C182.612 70.064 182.708 69.968 182.9 69.968C183.113 69.968 183.252 70 183.316 70.064C183.38 70.1067 183.433 70.2453 183.476 70.48ZM201.948 73.968C201.948 74.096 201.799 74.16 201.5 74.16C201.223 74.16 201.084 74.0853 201.084 73.936C200.871 72.8907 200.551 72.3147 200.124 72.208C199.356 72.0373 198.194 71.9307 196.636 71.888H196.028C195.815 71.9093 195.708 72.08 195.708 72.4V82.576C195.708 84.1973 195.922 85.008 196.348 85.008H197.948C198.119 85.008 198.204 85.1787 198.204 85.52C198.204 85.84 198.14 86 198.012 86L194.3 85.968L191.1 86.064C190.951 86.064 190.876 85.904 190.876 85.584C190.876 85.264 190.94 85.104 191.068 85.104H192.508C192.743 85.104 192.882 85.0613 192.924 84.976C192.967 84.8693 192.988 84.6027 192.988 84.176V74.448C192.988 72.848 192.796 71.9947 192.412 71.888C190.684 71.888 189.394 71.9947 188.54 72.208C188.114 72.3147 187.794 72.8907 187.58 73.936C187.58 74.0853 187.431 74.16 187.132 74.16C186.855 74.16 186.716 74.096 186.716 73.968L186.876 70.128C186.876 70 187.015 69.936 187.292 69.936C187.591 69.936 187.74 70 187.74 70.128V70.544C187.74 70.544 189.138 70.5653 191.932 70.608H194.3C197.543 70.608 199.719 70.5867 200.828 70.544H200.924V70.128C200.924 70 201.063 69.936 201.34 69.936C201.639 69.936 201.788 70 201.788 70.128L201.948 73.968ZM204.587 86L202.059 86.064C201.91 86.064 201.835 85.9253 201.835 85.648C201.835 85.3707 201.91 85.232 202.059 85.232H203.083C203.318 85.232 203.488 85.136 203.595 84.944C204.086 84.1333 205.067 81.9787 206.539 78.48C208.011 74.96 209.067 72.2933 209.707 70.48C209.792 70.288 209.995 70.192 210.315 70.192C210.656 70.192 210.87 70.2987 210.955 70.512C211.211 71.5787 211.958 73.5947 213.195 76.56C214.454 79.5253 215.552 82 216.491 83.984C216.747 84.496 216.982 84.8267 217.195 84.976C217.408 85.1253 217.739 85.2 218.187 85.2C218.315 85.2 218.379 85.3493 218.379 85.648C218.379 85.9253 218.326 86.064 218.219 86.064L215.147 86L211.691 86.064C211.563 86.064 211.499 85.9253 211.499 85.648C211.499 85.3707 211.563 85.232 211.691 85.232H213.227C213.462 85.232 213.579 85.136 213.579 84.944C213.579 84.9227 212.982 83.28 211.787 80.016H207.339C206.294 82.5973 205.771 84.112 205.771 84.56C205.771 84.9867 205.899 85.2 206.155 85.2H207.467C207.638 85.2 207.723 85.3493 207.723 85.648C207.723 85.9253 207.659 86.064 207.531 86.064L204.587 86ZM211.371 78.928C211.307 78.736 210.752 77.1147 209.707 74.064H209.611C209.099 75.536 208.491 77.1573 207.787 78.928H211.371ZM234.208 73.968C234.208 74.096 234.059 74.16 233.76 74.16C233.483 74.16 233.344 74.0853 233.344 73.936C233.131 72.8907 232.811 72.3147 232.384 72.208C231.616 72.0373 230.454 71.9307 228.896 71.888H228.288C228.075 71.9093 227.968 72.08 227.968 72.4V82.576C227.968 84.1973 228.182 85.008 228.608 85.008H230.208C230.379 85.008 230.464 85.1787 230.464 85.52C230.464 85.84 230.4 86 230.272 86L226.56 85.968L223.36 86.064C223.211 86.064 223.136 85.904 223.136 85.584C223.136 85.264 223.2 85.104 223.328 85.104H224.768C225.003 85.104 225.142 85.0613 225.184 84.976C225.227 84.8693 225.248 84.6027 225.248 84.176V74.448C225.248 72.848 225.056 71.9947 224.672 71.888C222.944 71.888 221.654 71.9947 220.8 72.208C220.374 72.3147 220.054 72.8907 219.84 73.936C219.84 74.0853 219.691 74.16 219.392 74.16C219.115 74.16 218.976 74.096 218.976 73.968L219.136 70.128C219.136 70 219.275 69.936 219.552 69.936C219.851 69.936 220 70 220 70.128V70.544C220 70.544 221.398 70.5653 224.192 70.608H226.56C229.803 70.608 231.979 70.5867 233.088 70.544H233.184V70.128C233.184 70 233.323 69.936 233.6 69.936C233.899 69.936 234.048 70 234.048 70.128L234.208 73.968ZM236.815 70.544L240.079 70.608H246.703V70.096C246.703 69.968 246.842 69.904 247.119 69.904C247.418 69.904 247.567 69.968 247.567 70.096C247.567 71.7813 247.642 72.9867 247.791 73.712C247.834 73.84 247.716 73.904 247.439 73.904C247.076 73.904 246.895 73.84 246.895 73.712C246.596 72.7307 246.308 72.176 246.031 72.048C245.135 71.728 243.834 71.568 242.127 71.568C241.828 71.5893 241.626 71.6747 241.519 71.824C241.412 71.9733 241.359 72.24 241.359 72.624V77.872C243.94 77.7867 245.359 77.6693 245.615 77.52L245.839 76.176C245.882 76.0693 246.031 76.016 246.287 76.016C246.564 76.016 246.703 76.0907 246.703 76.24C246.618 76.8587 246.575 77.552 246.575 78.32C246.575 79.0667 246.618 79.7493 246.703 80.368C246.703 80.496 246.554 80.56 246.255 80.56C245.978 80.56 245.839 80.5173 245.839 80.432L245.583 79.056C245.327 78.9067 243.919 78.7893 241.359 78.704V82.576C241.359 84.176 241.572 84.976 241.999 84.976H243.023C245.37 84.9333 246.991 84.6027 247.887 83.984L248.047 82.736C248.09 82.608 248.196 82.544 248.367 82.544C248.559 82.544 248.687 82.544 248.751 82.544C248.879 82.5867 248.943 82.6507 248.943 82.736C248.815 83.632 248.751 84.8907 248.751 86.512C248.751 86.6187 248.602 86.672 248.303 86.672C248.026 86.672 247.887 86.6187 247.887 86.512V86H242.191L236.751 86.064C236.602 86.064 236.527 85.904 236.527 85.584C236.527 85.264 236.591 85.104 236.719 85.104H238.159C238.394 85.104 238.532 85.0613 238.575 84.976C238.618 84.8693 238.639 84.6027 238.639 84.176V74.096C238.639 72.3893 238.426 71.536 237.999 71.536H236.847C236.591 71.536 236.463 71.376 236.463 71.056C236.463 70.7147 236.58 70.544 236.815 70.544Z" fill="white"/>
</svg>
