<svg width="348" height="87" viewBox="0 0 348 87" fill="none" xmlns="http://www.w3.org/2000/svg">
<path d="M35.199 24.84L43.599 24.66C43.919 24.66 44.079 25 44.079 25.68C44.079 26.36 43.919 26.7 43.599 26.7H41.739C40.739 26.7 40.079 26.9 39.759 27.3C39.439 27.66 39.279 28.82 39.279 30.78C39.279 32.7 39.319 34.68 39.399 36.72C39.519 38.72 39.619 40.12 39.699 40.92C39.819 41.68 39.919 42.34 39.999 42.9C40.119 43.46 40.179 43.86 40.179 44.1C40.179 44.58 39.859 44.82 39.219 44.82C38.979 44.82 38.579 44.08 38.019 42.6C37.499 41.12 36.959 40.38 36.399 40.38C32.719 41.98 28.859 42.78 24.819 42.78C17.899 42.78 12.179 41.06 7.65899 37.62C3.13899 34.18 0.878988 29.4 0.878988 23.28C0.878988 18.64 2.05899 14.6 4.41899 11.16C6.81899 7.72 9.85899 5.18 13.539 3.54C17.219 1.86 21.219 1.02 25.539 1.02C27.419 1.02 29.019 1.2 30.339 1.56C31.659 1.88 33.299 2.42 35.259 3.18V1.92C35.259 1.56 35.539 1.38 36.099 1.38C36.699 1.38 36.999 1.56 36.999 1.92C36.999 5.56 37.179 8.58 37.539 10.98C37.579 11.14 37.479 11.28 37.239 11.4C37.039 11.52 36.719 11.58 36.279 11.58C35.879 11.58 35.659 11.4 35.619 11.04L35.199 8.4C31.719 5.24 28.059 3.66 24.219 3.66C19.699 3.66 15.919 5.28 12.879 8.52C9.83899 11.72 8.31899 16.2 8.31899 21.96C8.31899 27.68 9.91899 32.14 13.119 35.34C16.319 38.5 20.339 40.08 25.179 40.08C28.339 40.08 30.739 39.24 32.379 37.56V32.04C32.379 28.52 31.959 26.76 31.119 26.76H24.759C24.439 26.76 24.279 26.44 24.279 25.8C24.279 25.12 24.439 24.78 24.759 24.78L35.199 24.84ZM47.4351 13.02L53.5551 13.14H65.9751V12.18C65.9751 11.94 66.2351 11.82 66.7551 11.82C67.3151 11.82 67.5951 11.94 67.5951 12.18C67.5951 15.34 67.7351 17.6 68.0151 18.96C68.0951 19.2 67.8751 19.32 67.3551 19.32C66.6751 19.32 66.3351 19.2 66.3351 18.96C65.7751 17.12 65.2351 16.08 64.7151 15.84C63.0351 15.24 60.5951 14.94 57.3951 14.94C56.8351 14.98 56.4551 15.14 56.2551 15.42C56.0551 15.7 55.9551 16.2 55.9551 16.92V26.76C60.7951 26.6 63.4551 26.38 63.9351 26.1L64.3551 23.58C64.4351 23.38 64.7151 23.28 65.1951 23.28C65.7151 23.28 65.9751 23.42 65.9751 23.7C65.8151 24.86 65.7351 26.16 65.7351 27.6C65.7351 29 65.8151 30.28 65.9751 31.44C65.9751 31.68 65.6951 31.8 65.1351 31.8C64.6151 31.8 64.3551 31.72 64.3551 31.56L63.8751 28.98C63.3951 28.7 60.7551 28.48 55.9551 28.32V35.58C55.9551 38.58 56.3551 40.08 57.1551 40.08H59.0751C63.4751 40 66.5151 39.38 68.1951 38.22L68.4951 35.88C68.5751 35.64 68.7751 35.52 69.0951 35.52C69.4551 35.52 69.6951 35.52 69.8151 35.52C70.0551 35.6 70.1751 35.72 70.1751 35.88C69.9351 37.56 69.8151 39.92 69.8151 42.96C69.8151 43.16 69.5351 43.26 68.9751 43.26C68.4551 43.26 68.1951 43.16 68.1951 42.96V42H57.5151L47.3151 42.12C47.0351 42.12 46.8951 41.82 46.8951 41.22C46.8951 40.62 47.0151 40.32 47.2551 40.32H49.9551C50.3951 40.32 50.6551 40.24 50.7351 40.08C50.8151 39.88 50.8551 39.38 50.8551 38.58V19.68C50.8551 16.48 50.4551 14.88 49.6551 14.88H47.4951C47.0151 14.88 46.7751 14.58 46.7751 13.98C46.7751 13.34 46.9951 13.02 47.4351 13.02ZM75.8229 13.02L81.9429 13.14H94.3629V12.18C94.3629 11.94 94.6229 11.82 95.1429 11.82C95.7029 11.82 95.9829 11.94 95.9829 12.18C95.9829 15.34 96.1229 17.6 96.4029 18.96C96.4829 19.2 96.2629 19.32 95.7429 19.32C95.0629 19.32 94.7229 19.2 94.7229 18.96C94.1629 17.12 93.6229 16.08 93.1029 15.84C91.4229 15.24 88.9829 14.94 85.7829 14.94C85.2229 14.98 84.8429 15.14 84.6429 15.42C84.4429 15.7 84.3429 16.2 84.3429 16.92V26.76C89.1829 26.6 91.8429 26.38 92.3229 26.1L92.7429 23.58C92.8229 23.38 93.1029 23.28 93.5829 23.28C94.1029 23.28 94.3629 23.42 94.3629 23.7C94.2029 24.86 94.1229 26.16 94.1229 27.6C94.1229 29 94.2029 30.28 94.3629 31.44C94.3629 31.68 94.0829 31.8 93.5229 31.8C93.0029 31.8 92.7429 31.72 92.7429 31.56L92.2629 28.98C91.7829 28.7 89.1429 28.48 84.3429 28.32V35.58C84.3429 38.58 84.7429 40.08 85.5429 40.08H87.4629C91.8629 40 94.9029 39.38 96.5829 38.22L96.8829 35.88C96.9629 35.64 97.1629 35.52 97.4829 35.52C97.8429 35.52 98.0829 35.52 98.2029 35.52C98.4429 35.6 98.5629 35.72 98.5629 35.88C98.3229 37.56 98.2029 39.92 98.2029 42.96C98.2029 43.16 97.9229 43.26 97.3629 43.26C96.8429 43.26 96.5829 43.16 96.5829 42.96V42H85.9029L75.7029 42.12C75.4229 42.12 75.2829 41.82 75.2829 41.22C75.2829 40.62 75.4029 40.32 75.6429 40.32H78.3429C78.7829 40.32 79.0429 40.24 79.1229 40.08C79.2029 39.88 79.2429 39.38 79.2429 38.58V19.68C79.2429 16.48 78.8429 14.88 78.0429 14.88H75.8829C75.4029 14.88 75.1629 14.58 75.1629 13.98C75.1629 13.34 75.3829 13.02 75.8229 13.02ZM124.911 19.02C124.911 19.22 124.631 19.32 124.071 19.32C123.511 19.32 123.231 19.2 123.231 18.96C122.671 17.12 122.131 16.08 121.611 15.84C119.931 15.24 117.451 14.94 114.171 14.94C113.611 14.98 113.231 15.14 113.031 15.42C112.831 15.7 112.731 16.2 112.731 16.92V26.76C117.651 26.6 120.351 26.38 120.831 26.1L121.251 23.58C121.331 23.38 121.611 23.28 122.091 23.28C122.611 23.28 122.871 23.42 122.871 23.7C122.711 24.86 122.631 26.16 122.631 27.6C122.631 29 122.711 30.28 122.871 31.44C122.871 31.68 122.591 31.8 122.031 31.8C121.511 31.8 121.251 31.72 121.251 31.56L120.771 28.98C120.291 28.7 117.611 28.48 112.731 28.32V35.58C112.731 38.62 113.131 40.14 113.931 40.14H116.931C117.251 40.14 117.411 40.46 117.411 41.1C117.411 41.7 117.291 42 117.051 42L110.091 41.94L104.091 42.12C103.811 42.12 103.671 41.82 103.671 41.22C103.671 40.62 103.791 40.32 104.031 40.32H106.731C107.171 40.32 107.431 40.24 107.511 40.08C107.591 39.88 107.631 39.38 107.631 38.58V19.68C107.631 16.48 107.231 14.88 106.431 14.88H104.271C103.791 14.88 103.551 14.58 103.551 13.98C103.551 13.34 103.771 13.02 104.211 13.02L110.331 13.14H122.871V12.18C122.871 11.94 123.131 11.82 123.651 11.82C124.211 11.82 124.491 11.94 124.491 12.18L124.911 19.02ZM181.628 33.66C181.708 33.22 182.048 33 182.648 33C183.288 33 183.608 33.18 183.608 33.54L183.128 41.88C183.128 42.2 182.808 42.36 182.168 42.36C181.568 42.36 181.268 42.2 181.268 41.88V40.44C177.348 42 173.508 42.78 169.748 42.78C162.868 42.78 157.148 41.06 152.588 37.62C148.028 34.14 145.748 29.34 145.748 23.22C145.748 18.62 146.948 14.6 149.348 11.16C151.748 7.68 154.788 5.12 158.468 3.48C162.148 1.8 165.908 0.959999 169.748 0.959999C173.628 0.959999 177.088 1.74 180.128 3.3V1.92C180.128 1.56 180.408 1.38 180.968 1.38C181.568 1.38 181.868 1.56 181.868 1.92C181.868 5.16 182.068 8.12 182.468 10.8C182.548 11.2 182.248 11.4 181.568 11.4C180.888 11.4 180.528 11.2 180.488 10.8L180.008 7.98C176.888 5.1 173.148 3.66 168.788 3.66C164.468 3.66 160.788 5.26 157.748 8.46C154.708 11.62 153.188 16.12 153.188 21.96C153.188 27.76 154.788 32.24 157.988 35.4C161.228 38.52 165.268 40.08 170.108 40.08C174.028 40.08 177.748 38.88 181.268 36.48L181.628 33.66ZM189.961 42L185.221 42.12C184.941 42.12 184.801 41.86 184.801 41.34C184.801 40.82 184.941 40.56 185.221 40.56H187.141C187.581 40.56 187.901 40.38 188.101 40.02C189.021 38.5 190.861 34.46 193.621 27.9C196.381 21.3 198.361 16.3 199.561 12.9C199.721 12.54 200.101 12.36 200.701 12.36C201.341 12.36 201.741 12.56 201.901 12.96C202.381 14.96 203.781 18.74 206.101 24.3C208.461 29.86 210.521 34.5 212.281 38.22C212.761 39.18 213.201 39.8 213.601 40.08C214.001 40.36 214.621 40.5 215.461 40.5C215.701 40.5 215.821 40.78 215.821 41.34C215.821 41.86 215.721 42.12 215.521 42.12L209.761 42L203.281 42.12C203.041 42.12 202.921 41.86 202.921 41.34C202.921 40.82 203.041 40.56 203.281 40.56H206.161C206.601 40.56 206.821 40.38 206.821 40.02C206.821 39.98 205.701 36.9 203.461 30.78H195.121C193.161 35.62 192.181 38.46 192.181 39.3C192.181 40.1 192.421 40.5 192.901 40.5H195.361C195.681 40.5 195.841 40.78 195.841 41.34C195.841 41.86 195.721 42.12 195.481 42.12L189.961 42ZM202.681 28.74C202.561 28.38 201.521 25.34 199.561 19.62H199.381C198.421 22.38 197.281 25.42 195.961 28.74H202.681ZM225.468 42L219.048 42.12C218.768 42.12 218.628 41.82 218.628 41.22C218.628 40.62 218.728 40.32 218.928 40.32H221.868C222.348 40.32 222.588 39.98 222.588 39.3V19.62C222.588 16.46 222.148 14.88 221.268 14.88H219.168C218.728 14.88 218.508 14.58 218.508 13.98C218.508 13.34 218.688 13.02 219.048 13.02C222.608 13.1 226.248 13.14 229.968 13.14C233.688 13.14 236.568 13.9 238.608 15.42C240.648 16.94 241.668 18.9 241.668 21.3C241.668 23.14 240.828 24.9 239.148 26.58C237.468 28.22 235.248 29.04 232.488 29.04C230.688 29.04 229.088 28.8 227.688 28.32V36.18C227.688 38.82 228.088 40.14 228.888 40.14H231.888C232.208 40.14 232.368 40.46 232.368 41.1C232.368 41.7 232.268 42 232.068 42H225.468ZM228.888 14.94C228.088 14.94 227.688 15.6 227.688 16.92V26.28C228.128 26.36 228.788 26.4 229.668 26.4C231.588 26.4 233.108 25.88 234.228 24.84C235.388 23.76 235.968 22.46 235.968 20.94C235.968 19.42 235.388 18.04 234.228 16.8C233.068 15.56 231.288 14.94 228.888 14.94ZM245.974 13.02L250.714 13.14C251.154 13.14 251.534 13.14 251.854 13.14L258.094 13.02C258.374 13.02 258.514 13.32 258.514 13.92C258.514 14.48 258.354 14.76 258.034 14.76H255.274C254.754 14.76 254.494 15.08 254.494 15.72V35.58C254.494 38.62 254.894 40.14 255.694 40.14H258.694C259.014 40.14 259.174 40.46 259.174 41.1C259.174 41.7 259.054 42 258.814 42L251.854 41.94L245.854 42.12C245.574 42.12 245.434 41.82 245.434 41.22C245.434 40.62 245.554 40.32 245.794 40.32H248.494C248.934 40.32 249.194 40.24 249.274 40.08C249.354 39.88 249.394 39.38 249.394 38.58V19.68C249.394 16.48 248.994 14.88 248.194 14.88H246.034C245.554 14.88 245.314 14.58 245.314 13.98C245.314 13.34 245.534 13.02 245.974 13.02ZM291.632 19.44C291.632 19.68 291.352 19.8 290.792 19.8C290.272 19.8 290.012 19.66 290.012 19.38C289.612 17.42 289.012 16.34 288.212 16.14C286.772 15.82 284.592 15.62 281.672 15.54H280.532C280.132 15.58 279.932 15.9 279.932 16.5V35.58C279.932 38.62 280.332 40.14 281.132 40.14H284.132C284.452 40.14 284.612 40.46 284.612 41.1C284.612 41.7 284.492 42 284.252 42L277.292 41.94L271.292 42.12C271.012 42.12 270.872 41.82 270.872 41.22C270.872 40.62 270.992 40.32 271.232 40.32H273.932C274.372 40.32 274.632 40.24 274.712 40.08C274.792 39.88 274.832 39.38 274.832 38.58V20.34C274.832 17.34 274.472 15.74 273.752 15.54C270.512 15.54 268.092 15.74 266.492 16.14C265.692 16.34 265.092 17.42 264.692 19.38C264.692 19.66 264.412 19.8 263.852 19.8C263.332 19.8 263.072 19.68 263.072 19.44L263.372 12.24C263.372 12 263.632 11.88 264.152 11.88C264.712 11.88 264.992 12 264.992 12.24V13.02C264.992 13.02 267.612 13.06 272.852 13.14H277.292C283.372 13.14 287.452 13.1 289.532 13.02H289.712V12.24C289.712 12 289.972 11.88 290.492 11.88C291.052 11.88 291.332 12 291.332 12.24L291.632 19.44ZM296.247 42L291.507 42.12C291.227 42.12 291.087 41.86 291.087 41.34C291.087 40.82 291.227 40.56 291.507 40.56H293.427C293.867 40.56 294.187 40.38 294.387 40.02C295.307 38.5 297.147 34.46 299.907 27.9C302.667 21.3 304.647 16.3 305.847 12.9C306.007 12.54 306.387 12.36 306.987 12.36C307.627 12.36 308.027 12.56 308.187 12.96C308.667 14.96 310.067 18.74 312.387 24.3C314.747 29.86 316.807 34.5 318.567 38.22C319.047 39.18 319.487 39.8 319.887 40.08C320.287 40.36 320.907 40.5 321.747 40.5C321.987 40.5 322.107 40.78 322.107 41.34C322.107 41.86 322.007 42.12 321.807 42.12L316.047 42L309.567 42.12C309.327 42.12 309.207 41.86 309.207 41.34C309.207 40.82 309.327 40.56 309.567 40.56H312.447C312.887 40.56 313.107 40.38 313.107 40.02C313.107 39.98 311.987 36.9 309.747 30.78H301.407C299.447 35.62 298.467 38.46 298.467 39.3C298.467 40.1 298.707 40.5 299.187 40.5H301.647C301.967 40.5 302.127 40.78 302.127 41.34C302.127 41.86 302.007 42.12 301.767 42.12L296.247 42ZM308.967 28.74C308.847 28.38 307.807 25.34 305.847 19.62H305.667C304.707 22.38 303.567 25.42 302.247 28.74H308.967ZM325.454 13.02L330.194 13.14C330.634 13.14 331.014 13.14 331.334 13.14L337.574 13.02C337.854 13.02 337.994 13.32 337.994 13.92C337.994 14.48 337.834 14.76 337.514 14.76H334.754C334.234 14.76 333.974 15.08 333.974 15.72V35.58C333.974 38.58 334.374 40.08 335.174 40.08H336.734C341.134 40 344.174 39.38 345.854 38.22L346.154 35.88C346.234 35.64 346.434 35.52 346.754 35.52C347.114 35.52 347.354 35.52 347.474 35.52C347.714 35.6 347.834 35.72 347.834 35.88C347.594 37.56 347.474 39.92 347.474 42.96C347.474 43.16 347.194 43.26 346.634 43.26C346.114 43.26 345.854 43.16 345.854 42.96V42H335.534L325.334 42.12C325.054 42.12 324.914 41.82 324.914 41.22C324.914 40.62 325.034 40.32 325.274 40.32H327.974C328.414 40.32 328.674 40.24 328.754 40.08C328.834 39.88 328.874 39.38 328.874 38.58V19.68C328.874 16.48 328.474 14.88 327.674 14.88H325.514C325.034 14.88 324.794 14.58 324.794 13.98C324.794 13.34 325.014 13.02 325.454 13.02ZM126.864 64.464L130.896 64.528H140.176V63.856C140.176 63.664 140.325 63.568 140.624 63.568C140.944 63.568 141.104 63.664 141.104 63.856C141.104 65.9893 141.21 67.6107 141.424 68.72C141.466 68.8907 141.317 68.976 140.976 68.976C140.634 68.976 140.442 68.8907 140.4 68.72C140.058 67.376 139.653 66.5973 139.184 66.384C138.053 65.9573 136.24 65.7333 133.744 65.712C133.317 65.7333 133.029 65.8507 132.88 66.064C132.752 66.2773 132.688 66.6507 132.688 67.184V74.736C134.01 74.7147 135.301 74.6507 136.56 74.544C137.818 74.4373 138.501 74.352 138.608 74.288L138.928 72.4C138.949 72.2507 139.077 72.176 139.312 72.176C139.76 72.176 139.962 72.272 139.92 72.464C139.813 73.296 139.76 74.2347 139.76 75.28C139.76 76.3253 139.813 77.264 139.92 78.096C139.962 78.2667 139.802 78.352 139.44 78.352C139.098 78.352 138.928 78.288 138.928 78.16L138.576 76.24C138.448 76.176 137.765 76.0907 136.528 75.984C135.312 75.856 134.032 75.7813 132.688 75.76V81.904C132.688 83.7813 132.912 84.72 133.36 84.72H134.992C138.298 84.6773 140.56 84.2293 141.776 83.376L142 81.616C142.042 81.4453 142.224 81.36 142.544 81.36C142.885 81.36 143.056 81.424 143.056 81.552L142.768 86.704C142.768 86.8533 142.597 86.928 142.256 86.928C141.936 86.928 141.776 86.8533 141.776 86.704V86H133.872L126.704 86.064C126.533 86.064 126.448 85.8827 126.448 85.52C126.448 85.1573 126.533 84.976 126.704 84.976H128.08C128.613 84.976 128.965 84.88 129.136 84.688C129.306 84.4747 129.392 84.08 129.392 83.504V68.336C129.392 66.4587 129.168 65.52 128.72 65.52H126.864C126.693 65.52 126.608 65.3493 126.608 65.008C126.608 64.6453 126.693 64.464 126.864 64.464ZM155.476 70.48L156.148 74C156.148 74.1707 156.02 74.256 155.764 74.256C155.508 74.256 155.348 74.1707 155.284 74C155.007 73.2107 154.569 72.56 153.972 72.048C153.375 71.536 152.724 71.28 152.02 71.28C151.337 71.2587 150.729 71.4507 150.196 71.856C149.684 72.2613 149.428 72.7627 149.428 73.36C149.428 73.936 149.599 74.4693 149.94 74.96C150.303 75.4293 150.74 75.8347 151.252 76.176C151.764 76.5173 152.329 76.912 152.948 77.36C153.567 77.7867 154.132 78.2133 154.644 78.64C155.156 79.0667 155.583 79.6213 155.924 80.304C156.287 80.9867 156.468 81.7227 156.468 82.512C156.468 83.7493 155.924 84.7093 154.836 85.392C153.748 86.0747 152.564 86.416 151.284 86.416C150.025 86.416 148.863 86.1707 147.796 85.68C147.796 85.936 147.775 86.096 147.732 86.16C147.711 86.224 147.604 86.2667 147.412 86.288H147.284C147.113 86.288 147.017 86.2027 146.996 86.032C146.953 85.52 146.868 84.816 146.74 83.92C146.612 83.024 146.516 82.2987 146.452 81.744C146.452 81.5307 146.58 81.424 146.836 81.424C147.113 81.424 147.263 81.4773 147.284 81.584C147.583 82.6293 148.105 83.536 148.852 84.304C149.599 85.0507 150.377 85.424 151.188 85.424C151.999 85.424 152.671 85.232 153.204 84.848C153.737 84.4427 154.004 83.888 154.004 83.184C154.004 82.48 153.759 81.84 153.268 81.264C152.799 80.6667 152.223 80.1333 151.54 79.664C150.857 79.1947 150.175 78.7253 149.492 78.256C148.809 77.7653 148.223 77.168 147.732 76.464C147.263 75.76 147.028 74.992 147.028 74.16C147.028 72.9653 147.529 72.016 148.532 71.312C149.556 70.608 150.761 70.256 152.148 70.256C152.937 70.256 153.78 70.4053 154.676 70.704C154.633 70.576 154.612 70.4267 154.612 70.256C154.612 70.064 154.708 69.968 154.9 69.968C155.113 69.968 155.252 70 155.316 70.064C155.38 70.1067 155.433 70.2453 155.476 70.48ZM173.948 73.968C173.948 74.096 173.799 74.16 173.5 74.16C173.223 74.16 173.084 74.0853 173.084 73.936C172.871 72.8907 172.551 72.3147 172.124 72.208C171.356 72.0373 170.194 71.9307 168.636 71.888H168.028C167.815 71.9093 167.708 72.08 167.708 72.4V82.576C167.708 84.1973 167.922 85.008 168.348 85.008H169.948C170.119 85.008 170.204 85.1787 170.204 85.52C170.204 85.84 170.14 86 170.012 86L166.3 85.968L163.1 86.064C162.951 86.064 162.876 85.904 162.876 85.584C162.876 85.264 162.94 85.104 163.068 85.104H164.508C164.743 85.104 164.882 85.0613 164.924 84.976C164.967 84.8693 164.988 84.6027 164.988 84.176V74.448C164.988 72.848 164.796 71.9947 164.412 71.888C162.684 71.888 161.394 71.9947 160.54 72.208C160.114 72.3147 159.794 72.8907 159.58 73.936C159.58 74.0853 159.431 74.16 159.132 74.16C158.855 74.16 158.716 74.096 158.716 73.968L158.876 70.128C158.876 70 159.015 69.936 159.292 69.936C159.591 69.936 159.74 70 159.74 70.128V70.544C159.74 70.544 161.138 70.5653 163.932 70.608H166.3C169.543 70.608 171.719 70.5867 172.828 70.544H172.924V70.128C172.924 70 173.063 69.936 173.34 69.936C173.639 69.936 173.788 70 173.788 70.128L173.948 73.968ZM176.587 86L174.059 86.064C173.91 86.064 173.835 85.9253 173.835 85.648C173.835 85.3707 173.91 85.232 174.059 85.232H175.083C175.318 85.232 175.488 85.136 175.595 84.944C176.086 84.1333 177.067 81.9787 178.539 78.48C180.011 74.96 181.067 72.2933 181.707 70.48C181.792 70.288 181.995 70.192 182.315 70.192C182.656 70.192 182.87 70.2987 182.955 70.512C183.211 71.5787 183.958 73.5947 185.195 76.56C186.454 79.5253 187.552 82 188.491 83.984C188.747 84.496 188.982 84.8267 189.195 84.976C189.408 85.1253 189.739 85.2 190.187 85.2C190.315 85.2 190.379 85.3493 190.379 85.648C190.379 85.9253 190.326 86.064 190.219 86.064L187.147 86L183.691 86.064C183.563 86.064 183.499 85.9253 183.499 85.648C183.499 85.3707 183.563 85.232 183.691 85.232H185.227C185.462 85.232 185.579 85.136 185.579 84.944C185.579 84.9227 184.982 83.28 183.787 80.016H179.339C178.294 82.5973 177.771 84.112 177.771 84.56C177.771 84.9867 177.899 85.2 178.155 85.2H179.467C179.638 85.2 179.723 85.3493 179.723 85.648C179.723 85.9253 179.659 86.064 179.531 86.064L176.587 86ZM183.371 78.928C183.307 78.736 182.752 77.1147 181.707 74.064H181.611C181.099 75.536 180.491 77.1573 179.787 78.928H183.371ZM206.208 73.968C206.208 74.096 206.059 74.16 205.76 74.16C205.483 74.16 205.344 74.0853 205.344 73.936C205.131 72.8907 204.811 72.3147 204.384 72.208C203.616 72.0373 202.454 71.9307 200.896 71.888H200.288C200.075 71.9093 199.968 72.08 199.968 72.4V82.576C199.968 84.1973 200.182 85.008 200.608 85.008H202.208C202.379 85.008 202.464 85.1787 202.464 85.52C202.464 85.84 202.4 86 202.272 86L198.56 85.968L195.36 86.064C195.211 86.064 195.136 85.904 195.136 85.584C195.136 85.264 195.2 85.104 195.328 85.104H196.768C197.003 85.104 197.142 85.0613 197.184 84.976C197.227 84.8693 197.248 84.6027 197.248 84.176V74.448C197.248 72.848 197.056 71.9947 196.672 71.888C194.944 71.888 193.654 71.9947 192.8 72.208C192.374 72.3147 192.054 72.8907 191.84 73.936C191.84 74.0853 191.691 74.16 191.392 74.16C191.115 74.16 190.976 74.096 190.976 73.968L191.136 70.128C191.136 70 191.275 69.936 191.552 69.936C191.851 69.936 192 70 192 70.128V70.544C192 70.544 193.398 70.5653 196.192 70.608H198.56C201.803 70.608 203.979 70.5867 205.088 70.544H205.184V70.128C205.184 70 205.323 69.936 205.6 69.936C205.899 69.936 206.048 70 206.048 70.128L206.208 73.968ZM208.815 70.544L212.079 70.608H218.703V70.096C218.703 69.968 218.842 69.904 219.119 69.904C219.418 69.904 219.567 69.968 219.567 70.096C219.567 71.7813 219.642 72.9867 219.791 73.712C219.834 73.84 219.716 73.904 219.439 73.904C219.076 73.904 218.895 73.84 218.895 73.712C218.596 72.7307 218.308 72.176 218.031 72.048C217.135 71.728 215.834 71.568 214.127 71.568C213.828 71.5893 213.626 71.6747 213.519 71.824C213.412 71.9733 213.359 72.24 213.359 72.624V77.872C215.94 77.7867 217.359 77.6693 217.615 77.52L217.839 76.176C217.882 76.0693 218.031 76.016 218.287 76.016C218.564 76.016 218.703 76.0907 218.703 76.24C218.618 76.8587 218.575 77.552 218.575 78.32C218.575 79.0667 218.618 79.7493 218.703 80.368C218.703 80.496 218.554 80.56 218.255 80.56C217.978 80.56 217.839 80.5173 217.839 80.432L217.583 79.056C217.327 78.9067 215.919 78.7893 213.359 78.704V82.576C213.359 84.176 213.572 84.976 213.999 84.976H215.023C217.37 84.9333 218.991 84.6027 219.887 83.984L220.047 82.736C220.09 82.608 220.196 82.544 220.367 82.544C220.559 82.544 220.687 82.544 220.751 82.544C220.879 82.5867 220.943 82.6507 220.943 82.736C220.815 83.632 220.751 84.8907 220.751 86.512C220.751 86.6187 220.602 86.672 220.303 86.672C220.026 86.672 219.887 86.6187 219.887 86.512V86H214.191L208.751 86.064C208.602 86.064 208.527 85.904 208.527 85.584C208.527 85.264 208.591 85.104 208.719 85.104H210.159C210.394 85.104 210.532 85.0613 210.575 84.976C210.618 84.8693 210.639 84.6027 210.639 84.176V74.096C210.639 72.3893 210.426 71.536 209.999 71.536H208.847C208.591 71.536 208.463 71.376 208.463 71.056C208.463 70.7147 208.58 70.544 208.815 70.544Z" fill="white"/>
</svg>
